<svg width="130" height="48" viewBox="0 0 130 48" fill="none" xmlns="http://www.w3.org/2000/svg">
<path d="M40.952 14.8277H41.7327V22.7465H40.952V19.3001C40.6694 19.4191 40.372 19.5083 40.0597 19.5678C39.7474 19.6273 39.3719 19.657 38.9332 19.657C38.4722 19.657 38.0819 19.5938 37.7622 19.4674C37.4424 19.3336 37.1822 19.1514 36.9814 18.9209C36.7881 18.683 36.6468 18.3967 36.5576 18.0621C36.4684 17.7275 36.4238 17.352 36.4238 16.9356V14.8277H37.2045V16.7906C37.2045 17.1847 37.2342 17.5193 37.2937 17.7944C37.3606 18.0695 37.4647 18.2926 37.606 18.4636C37.7547 18.6346 37.9443 18.761 38.1748 18.8428C38.4053 18.9172 38.6916 18.9544 39.0336 18.9544C39.4574 18.9544 39.8367 18.9135 40.1712 18.8317C40.5133 18.7425 40.7735 18.6309 40.952 18.4971V14.8277ZM49.064 22.055V22.7465H43.7439V14.8277H48.9636V15.5192H44.5247V18.3744H48.3948V19.0324H44.5247V22.055H49.064ZM50.5404 22.7465V14.8277H53.8195C54.1615 14.8277 54.4738 14.902 54.7563 15.0507C55.0463 15.192 55.2954 15.3816 55.5036 15.6196C55.7118 15.8501 55.8754 16.114 55.9943 16.4114C56.1133 16.7089 56.1728 17.01 56.1728 17.3148C56.1728 17.642 56.117 17.958 56.0055 18.2629C55.894 18.5603 55.7378 18.8242 55.5371 19.0547C55.3363 19.2852 55.0947 19.4711 54.8121 19.6124C54.537 19.7537 54.2284 19.8243 53.8864 19.8243H51.3212V22.7465H50.5404ZM51.3212 19.1328H53.8529C54.0834 19.1328 54.2916 19.0845 54.4775 18.9878C54.6708 18.8837 54.8344 18.7499 54.9683 18.5863C55.1021 18.4153 55.2062 18.222 55.2805 18.0063C55.3549 17.7833 55.3921 17.5528 55.3921 17.3148C55.3921 17.0695 55.3475 16.839 55.2582 16.6233C55.1764 16.4003 55.0612 16.207 54.9125 16.0434C54.7712 15.8798 54.6002 15.7534 54.3994 15.6642C54.2061 15.5675 54.0016 15.5192 53.786 15.5192H51.3212V19.1328ZM63.2891 20.7054C63.2891 21.0028 63.2296 21.278 63.1106 21.5308C62.9917 21.7761 62.8318 21.9918 62.631 22.1776C62.4303 22.3561 62.1961 22.4974 61.9284 22.6015C61.6607 22.6981 61.3744 22.7465 61.0696 22.7465H57.3333V14.8277H61.1477C61.4228 14.8277 61.6719 14.8872 61.8949 15.0061C62.118 15.1251 62.3076 15.2812 62.4637 15.4746C62.6199 15.6605 62.7388 15.8761 62.8206 16.1215C62.9099 16.3594 62.9545 16.601 62.9545 16.8464C62.9545 17.2479 62.8541 17.616 62.6533 17.9506C62.4526 18.2777 62.1737 18.5231 61.8168 18.6867C62.2704 18.8205 62.6273 19.0696 62.8876 19.434C63.1552 19.7983 63.2891 20.2221 63.2891 20.7054ZM62.5083 20.5716C62.5083 20.3783 62.4749 20.1924 62.408 20.0139C62.341 19.828 62.2444 19.6682 62.118 19.5343C61.999 19.3931 61.854 19.2815 61.683 19.1997C61.5194 19.1105 61.341 19.0659 61.1477 19.0659H58.114V22.0661H61.0696C61.2703 22.0661 61.4562 22.0252 61.6272 21.9434C61.8057 21.8616 61.9581 21.7538 62.0845 21.62C62.2184 21.4787 62.3225 21.3188 62.3968 21.1404C62.4712 20.9545 62.5083 20.7649 62.5083 20.5716ZM58.114 15.508V18.4302H60.8354C61.0287 18.4302 61.2071 18.3893 61.3707 18.3075C61.5417 18.2257 61.6867 18.1179 61.8057 17.984C61.9247 17.8502 62.0176 17.6978 62.0845 17.5268C62.1514 17.3483 62.1849 17.1624 62.1849 16.9691C62.1849 16.7683 62.1514 16.5787 62.0845 16.4003C62.025 16.2218 61.9358 16.0694 61.8168 15.943C61.7053 15.8092 61.5715 15.7051 61.4153 15.6307C61.2592 15.5489 61.0882 15.508 60.9023 15.508H58.114ZM68.1292 22.8022C67.579 22.8022 67.0734 22.6907 66.6124 22.4676C66.1588 22.2371 65.7685 21.936 65.4413 21.5642C65.1141 21.185 64.8613 20.7538 64.6829 20.2704C64.5044 19.7871 64.4152 19.2927 64.4152 18.7871C64.4152 18.2592 64.5081 17.7535 64.694 17.2702C64.8873 16.7869 65.1513 16.3594 65.4859 15.9876C65.8205 15.6158 66.2146 15.3221 66.6681 15.1065C67.1217 14.8834 67.6125 14.7719 68.1404 14.7719C68.6906 14.7719 69.1925 14.8909 69.6461 15.1288C70.1071 15.3593 70.4974 15.6642 70.8171 16.0434C71.1443 16.4226 71.3971 16.8538 71.5756 17.3372C71.754 17.813 71.8432 18.3 71.8432 18.7982C71.8432 19.3261 71.7466 19.8318 71.5533 20.3151C71.3674 20.7984 71.1071 21.2259 70.7725 21.5977C70.4454 21.962 70.055 22.2557 69.6014 22.4788C69.1479 22.6944 68.6571 22.8022 68.1292 22.8022ZM65.1959 18.7871C65.1959 19.2183 65.2666 19.6347 65.4078 20.0362C65.5491 20.4303 65.7499 20.7835 66.0101 21.0958C66.2703 21.4006 66.5789 21.646 66.9358 21.8319C67.2927 22.0103 67.6905 22.0996 68.1292 22.0996C68.5753 22.0996 68.9806 22.0029 69.3449 21.8096C69.7093 21.6163 70.0178 21.3635 70.2706 21.0512C70.5234 20.7389 70.7168 20.3857 70.8506 19.9916C70.9919 19.5975 71.0625 19.196 71.0625 18.7871C71.0625 18.3558 70.9882 17.9431 70.8394 17.5491C70.6982 17.1475 70.4974 16.7944 70.2372 16.4895C69.9769 16.1847 69.6684 15.943 69.3115 15.7645C68.9546 15.5787 68.5605 15.4857 68.1292 15.4857C67.6831 15.4857 67.2779 15.5824 66.9135 15.7757C66.5492 15.9616 66.2406 16.2107 65.9878 16.523C65.735 16.8353 65.538 17.1884 65.3967 17.5825C65.2628 17.9766 65.1959 18.3781 65.1959 18.7871ZM79.561 14.8277V22.7465H78.7914V19.0436H74.0959V22.7465H73.3152V14.8277H74.0959V18.3521H78.7914V14.8277H79.561ZM84.0246 14.8277H84.6827L87.9729 22.7465H87.1475L86.1214 20.2704H82.5636L81.5486 22.7465H80.7121L84.0246 14.8277ZM85.943 19.657L84.3481 15.7422L82.7309 19.657H85.943ZM93.7576 16.9245C93.6684 17.9729 93.5532 18.8689 93.4119 19.6124C93.2781 20.356 93.107 20.9657 92.8988 21.4415C92.6981 21.91 92.4527 22.2557 92.1627 22.4788C91.8802 22.6944 91.5456 22.8022 91.1589 22.8022L91.0251 22.055C91.1738 22.0475 91.3151 22.0178 91.4489 21.9657C91.5902 21.9137 91.724 21.8207 91.8504 21.6869C91.9768 21.5456 92.0958 21.356 92.2073 21.1181C92.3189 20.8727 92.423 20.5604 92.5196 20.1812C92.6163 19.7946 92.7018 19.3299 92.7762 18.7871C92.858 18.2443 92.9286 17.6011 92.9881 16.8576L93.1554 14.8277H97.1817V22.7465H96.4121V15.5192H93.8692L93.7576 16.9245ZM99.2159 22.7465V14.8277H99.9966V22.7465H99.2159ZM108.25 14.8277V22.7465H107.48V19.0436H102.785V22.7465H102.004V14.8277H102.785V18.3521H107.48V14.8277H108.25ZM110.271 22.7465V14.8277H111.052V22.7465H110.271ZM117.32 22.7465V19.5678H115.223L113.305 22.7465H112.39L114.42 19.4451C114.175 19.3633 113.952 19.2481 113.751 19.0994C113.558 18.9506 113.39 18.7796 113.249 18.5863C113.108 18.3856 112.996 18.1662 112.914 17.9283C112.84 17.6903 112.803 17.4412 112.803 17.181C112.803 16.8836 112.862 16.5936 112.981 16.3111C113.1 16.0285 113.268 15.7794 113.483 15.5638C113.699 15.3407 113.955 15.1623 114.253 15.0284C114.558 14.8946 114.892 14.8277 115.257 14.8277H118.101V22.7465H117.32ZM117.32 15.5192H115.29C115.052 15.5192 114.829 15.5638 114.621 15.653C114.413 15.7348 114.23 15.8538 114.074 16.0099C113.926 16.1586 113.807 16.3334 113.717 16.5341C113.636 16.7349 113.595 16.9505 113.595 17.181C113.595 17.4041 113.632 17.6197 113.706 17.8279C113.781 18.0287 113.885 18.2071 114.019 18.3632C114.16 18.5194 114.331 18.6458 114.532 18.7425C114.732 18.8317 114.963 18.8763 115.223 18.8763H117.32V15.5192Z" fill="white"/>
<path d="M58.7309 37.1202H58.35V36.4303H56.6334V33.1528H57.0143V36.0981H58.1363V33.1528H58.5172V36.0981H58.7309V37.1202ZM61.4416 35.2317H59.7808C59.7808 35.5058 59.8598 35.7319 60.0177 35.91C60.1772 36.0881 60.3723 36.1771 60.6031 36.1771C60.8229 36.1771 61.0498 36.1376 61.2836 36.0587L61.3463 36.349C61.1327 36.445 60.8833 36.493 60.5984 36.493C60.2392 36.493 59.9496 36.3776 59.7297 36.1469C59.5098 35.9162 59.3999 35.6049 59.3999 35.2132C59.3999 34.8291 59.4982 34.5233 59.6948 34.2957C59.8931 34.0665 60.1486 33.9519 60.4614 33.9519C60.7401 33.9519 60.9732 34.058 61.1605 34.2701C61.3479 34.4823 61.4416 34.7649 61.4416 35.1179V35.2317ZM61.0467 34.9367C61.0467 34.7478 60.9879 34.5891 60.8702 34.4606C60.7525 34.3305 60.6209 34.2655 60.4753 34.2655C60.2879 34.2655 60.1323 34.3274 60.0084 34.4513C59.8861 34.5752 59.818 34.737 59.804 34.9367H61.0467ZM64.2173 36.4303H63.8503V35.2364H62.7238V36.4303H62.3614V34.01H62.7238V34.9228H63.8503V34.01H64.2173V36.4303ZM67.1254 34.3235H66.3264V36.4303H65.9664V34.3235H65.1673V34.01H67.1254V34.3235ZM68.4378 34.3235C68.5183 34.212 68.6267 34.1222 68.763 34.0541C68.9008 33.986 69.0456 33.9519 69.1974 33.9519C69.4761 33.9519 69.6944 34.0672 69.8524 34.298C70.0119 34.5272 70.0916 34.826 70.0916 35.1946C70.0916 35.5662 70.008 35.8759 69.8408 36.1237C69.6751 36.3699 69.4513 36.493 69.1695 36.493C69.0193 36.493 68.8784 36.4558 68.7467 36.3815C68.6167 36.3056 68.5137 36.2058 68.4378 36.0819V37.3873H68.0755V34.01H68.4378V34.3235ZM68.4378 34.6836V35.6893C68.506 35.8256 68.5981 35.9394 68.7142 36.0308C68.8304 36.1221 68.9504 36.1678 69.0743 36.1678C69.2694 36.1678 69.4242 36.0765 69.5388 35.8937C69.655 35.711 69.713 35.4841 69.713 35.2132C69.713 34.9344 69.6581 34.7068 69.5481 34.5303C69.4382 34.3537 69.2849 34.2655 69.0882 34.2655C68.8327 34.2655 68.6159 34.4048 68.4378 34.6836ZM75.6454 36.4303H75.2784V34.3235H74.1519V36.4303H73.7895V34.01H75.6454V36.4303ZM78.5837 35.2317H76.923C76.923 35.5058 77.0019 35.7319 77.1599 35.91C77.3194 36.0881 77.5145 36.1771 77.7452 36.1771C77.9651 36.1771 78.192 36.1376 78.4258 36.0587L78.4885 36.349C78.2748 36.445 78.0255 36.493 77.7406 36.493C77.3813 36.493 77.0917 36.3776 76.8719 36.1469C76.652 35.9162 76.542 35.6049 76.542 35.2132C76.542 34.8291 76.6403 34.5233 76.837 34.2957C77.0352 34.0665 77.2907 33.9519 77.6035 33.9519C77.8823 33.9519 78.1153 34.058 78.3027 34.2701C78.4901 34.4823 78.5837 34.7649 78.5837 35.1179V35.2317ZM78.1889 34.9367C78.1889 34.7478 78.13 34.5891 78.0123 34.4606C77.8947 34.3305 77.763 34.2655 77.6175 34.2655C77.4301 34.2655 77.2745 34.3274 77.1506 34.4513C77.0283 34.5752 76.9601 34.737 76.9462 34.9367H78.1889ZM79.8659 34.3235C79.9465 34.212 80.0548 34.1222 80.1911 34.0541C80.3289 33.986 80.4737 33.9519 80.6255 33.9519C80.9042 33.9519 81.1226 34.0672 81.2805 34.298C81.44 34.5272 81.5198 34.826 81.5198 35.1946C81.5198 35.5662 81.4361 35.8759 81.2689 36.1237C81.1032 36.3699 80.8794 36.493 80.5976 36.493C80.4474 36.493 80.3065 36.4558 80.1749 36.3815C80.0448 36.3056 79.9418 36.2058 79.8659 36.0819V37.3873H79.5036V34.01H79.8659V34.3235ZM79.8659 34.6836V35.6893C79.9341 35.8256 80.0262 35.9394 80.1423 36.0308C80.2585 36.1221 80.3785 36.1678 80.5024 36.1678C80.6975 36.1678 80.8523 36.0765 80.9669 35.8937C81.0831 35.711 81.1411 35.4841 81.1411 35.2132C81.1411 34.9344 81.0862 34.7068 80.9762 34.5303C80.8663 34.3537 80.713 34.2655 80.5163 34.2655C80.2608 34.2655 80.044 34.4048 79.8659 34.6836ZM84.2978 35.2317H82.637C82.637 35.5058 82.716 35.7319 82.8739 35.91C83.0334 36.0881 83.2285 36.1771 83.4593 36.1771C83.6792 36.1771 83.906 36.1376 84.1399 36.0587L84.2026 36.349C83.9889 36.445 83.7396 36.493 83.4546 36.493C83.0954 36.493 82.8058 36.3776 82.5859 36.1469C82.366 35.9162 82.2561 35.6049 82.2561 35.2132C82.2561 34.8291 82.3544 34.5233 82.5511 34.2957C82.7493 34.0665 83.0048 33.9519 83.3176 33.9519C83.5963 33.9519 83.8294 34.058 84.0167 34.2701C84.2041 34.4823 84.2978 34.7649 84.2978 35.1179V35.2317ZM83.9029 34.9367C83.9029 34.7478 83.8441 34.5891 83.7264 34.4606C83.6087 34.3305 83.4771 34.2655 83.3315 34.2655C83.1442 34.2655 82.9885 34.3274 82.8646 34.4513C82.7423 34.5752 82.6742 34.737 82.6602 34.9367H83.9029ZM86.6485 35.1458C86.794 35.1768 86.9148 35.2441 87.0108 35.3479C87.1068 35.4516 87.1548 35.5616 87.1548 35.6777C87.1548 35.9177 87.0712 36.1036 86.904 36.2352C86.7383 36.3653 86.5455 36.4303 86.3256 36.4303H85.2176V34.01H86.1793C86.4317 34.01 86.6353 34.068 86.7902 34.1842C86.9466 34.3003 87.0248 34.4559 87.0248 34.651C87.0248 34.7672 86.9884 34.8717 86.9156 34.9646C86.8428 35.0575 86.7538 35.1179 86.6485 35.1458ZM85.58 35.0041H86.1886C86.4921 35.0041 86.6438 34.8911 86.6438 34.665C86.6438 34.5597 86.6005 34.4768 86.5137 34.4164C86.427 34.3545 86.314 34.3235 86.1746 34.3235H85.58V35.0041ZM85.58 36.1167H86.2606C86.4092 36.1167 86.5308 36.0788 86.6252 36.0029C86.7212 35.927 86.7693 35.8225 86.7693 35.6893C86.7693 35.5716 86.7166 35.4803 86.6113 35.4152C86.5075 35.3502 86.3713 35.3177 86.2025 35.3177H85.58V36.1167ZM89.1594 33.0948C89.2275 33.0948 89.2856 33.1196 89.3336 33.1691C89.3816 33.2171 89.4056 33.2752 89.4056 33.3433C89.4056 33.4145 89.3816 33.4742 89.3336 33.5222C89.2872 33.5702 89.2291 33.5942 89.1594 33.5942C89.0959 33.5942 89.0394 33.5694 88.9898 33.5198C88.9418 33.4687 88.9178 33.4099 88.9178 33.3433C88.9178 33.2767 88.9418 33.2187 88.9898 33.1691C89.0394 33.1196 89.0959 33.0948 89.1594 33.0948ZM89.3359 36.4303H88.9736V34.3235H88.2605V34.01H89.3359V36.4303ZM91.294 34.3235C91.3746 34.212 91.483 34.1222 91.6192 34.0541C91.757 33.986 91.9018 33.9519 92.0536 33.9519C92.3323 33.9519 92.5507 34.0672 92.7086 34.298C92.8681 34.5272 92.9479 34.826 92.9479 35.1946C92.9479 35.5662 92.8642 35.8759 92.697 36.1237C92.5313 36.3699 92.3075 36.493 92.0257 36.493C91.8755 36.493 91.7346 36.4558 91.603 36.3815C91.4729 36.3056 91.3699 36.2058 91.294 36.0819V37.3873H90.9317V34.01H91.294V34.3235ZM91.294 34.6836V35.6893C91.3622 35.8256 91.4543 35.9394 91.5705 36.0308C91.6866 36.1221 91.8066 36.1678 91.9305 36.1678C92.1256 36.1678 92.2804 36.0765 92.395 35.8937C92.5112 35.711 92.5692 35.4841 92.5692 35.2132C92.5692 34.9344 92.5143 34.7068 92.4043 34.5303C92.2944 34.3537 92.1411 34.2655 91.9444 34.2655C91.6889 34.2655 91.4721 34.4048 91.294 34.6836ZM95.8908 36.4303H95.4147L94.388 35.2271L94.1511 35.4315V36.4303H93.7887V34.01H94.1511V35.032L95.2869 34.01H95.7491L94.6458 34.9995L95.8908 36.4303ZM98.5016 36.4303H98.1346V34.5558L97.0592 36.4303H96.6457V34.01H97.0081V35.8937L98.0882 34.01H98.5016V36.4303ZM103.468 34.3235C103.579 34.0758 103.746 33.9519 103.967 33.9519C104.39 33.9519 104.601 34.3622 104.601 35.183C104.601 36.0563 104.396 36.493 103.986 36.493C103.87 36.493 103.771 36.4636 103.691 36.4047C103.612 36.3459 103.537 36.2383 103.468 36.0819V37.3873H103.108V36.0819C103.037 36.2383 102.961 36.3459 102.882 36.4047C102.803 36.4636 102.705 36.493 102.587 36.493C102.179 36.493 101.974 36.0563 101.974 35.183C101.974 34.3622 102.186 33.9519 102.608 33.9519C102.83 33.9519 102.996 34.0758 103.108 34.3235V33.1528H103.468V34.3235ZM103.108 35.6893V34.6836C103.058 34.5535 102.998 34.4513 102.927 34.377C102.855 34.3026 102.786 34.2655 102.718 34.2655C102.597 34.2655 102.506 34.3289 102.446 34.4559C102.385 34.5829 102.355 34.8322 102.355 35.2039C102.355 35.4702 102.367 35.6676 102.39 35.7962C102.415 35.9247 102.451 36.0192 102.499 36.0796C102.547 36.1384 102.608 36.1678 102.683 36.1678C102.748 36.1678 102.807 36.1469 102.859 36.1051C102.913 36.0617 102.968 35.9843 103.024 35.8728C103.08 35.7598 103.108 35.6986 103.108 35.6893ZM103.468 35.6893C103.553 35.8906 103.626 36.0207 103.688 36.0796C103.75 36.1384 103.818 36.1678 103.891 36.1678C104 36.1678 104.083 36.1005 104.137 35.9657C104.192 35.831 104.22 35.5771 104.22 35.2039C104.22 34.936 104.207 34.7416 104.181 34.6208C104.155 34.4985 104.114 34.4087 104.06 34.3514C104.007 34.2941 103.94 34.2655 103.858 34.2655C103.767 34.2655 103.678 34.3259 103.593 34.4466C103.51 34.5659 103.468 34.6448 103.468 34.6836V35.6893ZM107.142 36.4303H106.782C106.753 36.3327 106.738 36.2027 106.738 36.0401C106.532 36.342 106.252 36.493 105.897 36.493C105.718 36.493 105.559 36.4295 105.421 36.3025C105.285 36.174 105.217 36.0091 105.217 35.8078C105.217 35.6886 105.241 35.5833 105.289 35.4919C105.337 35.4005 105.407 35.3239 105.5 35.2619C105.593 35.1984 105.706 35.1489 105.839 35.1133C105.973 35.0761 106.13 35.0506 106.313 35.0366L106.72 35.0041V34.888C106.72 34.473 106.526 34.2655 106.139 34.2655C106.048 34.2655 105.931 34.2856 105.791 34.3259C105.651 34.3646 105.531 34.411 105.431 34.4652L105.335 34.2051C105.665 34.0363 105.972 33.9519 106.255 33.9519C106.806 33.9519 107.082 34.2438 107.082 34.8276V35.8682C107.082 36.0788 107.102 36.2662 107.142 36.4303ZM106.72 35.7126V35.2735C106.393 35.303 106.168 35.3308 106.046 35.3572C105.925 35.3819 105.82 35.4292 105.73 35.4989C105.642 35.5685 105.598 35.663 105.598 35.7822C105.598 35.8906 105.636 35.9781 105.712 36.0447C105.787 36.1113 105.884 36.1446 106.002 36.1446C106.13 36.1446 106.258 36.1067 106.385 36.0308C106.512 35.9534 106.624 35.8473 106.72 35.7126ZM110.176 36.4303H109.7L108.673 35.2271L108.436 35.4315V36.4303H108.074V34.01H108.436V35.032L109.572 34.01H110.034L108.931 34.9995L110.176 36.4303ZM112.838 34.3235H112.039V36.4303H111.679V34.3235H110.88V34.01H112.838V34.3235ZM114.873 33.0948C114.941 33.0948 114.999 33.1196 115.047 33.1691C115.095 33.2171 115.119 33.2752 115.119 33.3433C115.119 33.4145 115.095 33.4742 115.047 33.5222C115 33.5702 114.942 33.5942 114.873 33.5942C114.809 33.5942 114.753 33.5694 114.703 33.5198C114.655 33.4687 114.631 33.4099 114.631 33.3433C114.631 33.2767 114.655 33.2187 114.703 33.1691C114.753 33.1196 114.809 33.0948 114.873 33.0948ZM115.049 36.4303H114.687V34.3235H113.974V34.01H115.049V36.4303ZM118.076 35.1458C118.221 35.1768 118.342 35.2441 118.438 35.3479C118.534 35.4516 118.582 35.5616 118.582 35.6777C118.582 35.9177 118.499 36.1036 118.331 36.2352C118.166 36.3653 117.973 36.4303 117.753 36.4303H116.645V34.01H117.607C117.859 34.01 118.063 34.068 118.217 34.1842C118.374 34.3003 118.452 34.4559 118.452 34.651C118.452 34.7672 118.416 34.8717 118.343 34.9646C118.27 35.0575 118.181 35.1179 118.076 35.1458ZM117.007 35.0041H117.616C117.919 35.0041 118.071 34.8911 118.071 34.665C118.071 34.5597 118.028 34.4768 117.941 34.4164C117.854 34.3545 117.741 34.3235 117.602 34.3235H117.007V35.0041ZM117.007 36.1167H117.688C117.837 36.1167 117.958 36.0788 118.053 36.0029C118.149 35.927 118.197 35.8225 118.197 35.6893C118.197 35.5716 118.144 35.4803 118.039 35.4152C117.935 35.3502 117.799 35.3177 117.63 35.3177H117.007V36.1167Z" fill="white"/>
<g clip-path="url(#clip0_25_6061)">
<path d="M17.3752 31.6211C19.4812 41.2372 27.6562 45.9968 34.8306 46.0215C41.8095 46.0462 50.9212 40.914 52.389 30.3654H53.6777C53.5707 37.1384 47.4111 46.1903 37.1137 47.3699C25.2187 48.7328 17.052 39.7838 15.9897 31.6211H17.3773H17.3752Z" fill="white"/>
<mask id="path-4-inside-1_25_6061" fill="white">
<path d="M43.2037 10.2499C40.4249 8.93357 37.3751 8.29048 34.3015 8.37273C31.2278 8.45497 28.2167 9.26023 25.5124 10.7232C22.808 12.1862 20.4863 14.2658 18.7355 16.7935C16.9848 19.3211 15.8542 22.2257 15.4353 25.2718L16.9761 25.4837C17.3616 22.6796 18.4024 20.0058 20.014 17.6791C21.6257 15.3523 23.7629 13.4379 26.2524 12.0912C28.7419 10.7444 31.5136 10.0031 34.3431 9.92742C37.1725 9.85172 39.9799 10.4437 42.5379 11.6554L43.2037 10.2499Z"/>
</mask>
<path d="M43.2037 10.2499C40.4249 8.93357 37.3751 8.29048 34.3015 8.37273C31.2278 8.45497 28.2167 9.26023 25.5124 10.7232C22.808 12.1862 20.4863 14.2658 18.7355 16.7935C16.9848 19.3211 15.8542 22.2257 15.4353 25.2718L16.9761 25.4837C17.3616 22.6796 18.4024 20.0058 20.014 17.6791C21.6257 15.3523 23.7629 13.4379 26.2524 12.0912C28.7419 10.7444 31.5136 10.0031 34.3431 9.92742C37.1725 9.85172 39.9799 10.4437 42.5379 11.6554L43.2037 10.2499Z" stroke="white" stroke-width="3.89106" stroke-linejoin="round" mask="url(#path-4-inside-1_25_6061)"/>
<path d="M1.24533 27.232C1.06569 27.2339 0.893402 27.3059 0.766374 27.4334C0.639346 27.5609 0.567983 27.7334 0.567983 27.913C0.567983 28.0926 0.639346 28.265 0.766374 28.3925C0.893402 28.5201 1.06569 28.592 1.24533 28.5939C1.24533 28.5939 1.24533 28.5939 1.24533 28.5939C2.47258 28.6069 3.69982 28.6134 4.92707 28.6134C5.74426 28.6134 6.56145 28.6133 7.37865 28.6131C44.1785 28.6041 80.9784 28.3942 117.778 27.9833C119.823 27.9605 121.867 27.937 123.912 27.913C123.912 27.913 123.912 27.913 123.912 27.913C121.867 27.8889 119.823 27.8655 117.778 27.8426C80.9784 27.4317 44.1785 27.2218 7.37865 27.2129C6.56145 27.2127 5.74426 27.2126 4.92707 27.2126C3.69982 27.2126 2.47258 27.2191 1.24533 27.232Z" fill="#C90000"/>
</g>
<path d="M128.346 31.7298C129.259 31.7298 130 30.9447 130 29.9761C130 29.0075 129.259 28.2223 128.346 28.2223C127.433 28.2223 126.692 29.0075 126.692 29.9761C126.692 30.9447 127.433 31.7298 128.346 31.7298Z" fill="#C90000"/>
<defs>
<clipPath id="clip0_25_6061">
<rect width="129.984" height="47.5099" fill="white"/>
</clipPath>
</defs>
</svg>
