<svg width="611" height="224" viewBox="0 0 611 224" fill="none" xmlns="http://www.w3.org/2000/svg">
<path d="M192.44 72.686H196.109V109.897H192.44V93.7025C191.112 94.2616 189.714 94.6809 188.247 94.9604C186.779 95.2399 185.015 95.3797 182.954 95.3797C180.787 95.3797 178.953 95.0827 177.45 94.4887C175.948 93.8598 174.725 93.0037 173.782 91.9206C172.873 90.8025 172.209 89.4573 171.79 87.885C171.371 86.3127 171.161 84.5482 171.161 82.5915V72.686H174.83V81.9102C174.83 83.762 174.97 85.3343 175.249 86.6271C175.564 87.9199 176.053 88.9681 176.717 89.7718C177.416 90.5754 178.306 91.1694 179.39 91.5537C180.473 91.9031 181.818 92.0778 183.425 92.0778C185.417 92.0778 187.199 91.8856 188.771 91.5013C190.378 91.082 191.601 90.5579 192.44 89.929V72.686ZM230.559 106.648V109.897H205.56V72.686H230.088V75.9354H209.228V89.3525H227.415V92.4447H209.228V106.648H230.559ZM237.497 109.897V72.686H252.906C254.513 72.686 255.981 73.0354 257.308 73.7342C258.671 74.3981 259.841 75.289 260.82 76.4071C261.798 77.4903 262.567 78.7306 263.126 80.1283C263.685 81.5259 263.964 82.9409 263.964 84.3735C263.964 85.9109 263.702 87.3958 263.178 88.8284C262.654 90.226 261.92 91.4664 260.977 92.5495C260.034 93.6327 258.898 94.5062 257.57 95.17C256.278 95.8339 254.828 96.1658 253.22 96.1658H241.166V109.897H237.497ZM241.166 92.9164H253.063C254.146 92.9164 255.125 92.6893 255.998 92.235C256.906 91.7459 257.675 91.117 258.304 90.3483C258.933 89.5446 259.422 88.6362 259.772 87.6229C260.121 86.5747 260.296 85.4916 260.296 84.3735C260.296 83.2205 260.086 82.1373 259.667 81.1241C259.282 80.0758 258.741 79.1674 258.042 78.3987C257.378 77.63 256.575 77.036 255.631 76.6168C254.723 76.1625 253.762 75.9354 252.749 75.9354H241.166V92.9164ZM297.405 100.306C297.405 101.704 297.125 102.997 296.566 104.185C296.007 105.338 295.256 106.351 294.312 107.224C293.369 108.063 292.268 108.727 291.011 109.216C289.753 109.67 288.408 109.897 286.975 109.897H269.418V72.686H287.342C288.635 72.686 289.805 72.9655 290.853 73.5245C291.902 74.0836 292.793 74.8173 293.526 75.7258C294.26 76.5993 294.819 77.6126 295.203 78.7656C295.623 79.8837 295.832 81.0192 295.832 82.1723C295.832 84.059 295.361 85.7886 294.417 87.3609C293.474 88.8983 292.164 90.0513 290.486 90.82C292.618 91.4489 294.295 92.6194 295.518 94.3315C296.776 96.0435 297.405 98.0351 297.405 100.306ZM293.736 99.6773C293.736 98.7689 293.579 97.8954 293.264 97.0568C292.95 96.1833 292.496 95.4321 291.902 94.8032C291.343 94.1393 290.661 93.6152 289.858 93.2308C289.089 92.8116 288.25 92.6019 287.342 92.6019H273.086V106.7H286.975C287.918 106.7 288.792 106.508 289.596 106.124C290.434 105.739 291.15 105.233 291.744 104.604C292.373 103.94 292.862 103.189 293.212 102.35C293.561 101.477 293.736 100.586 293.736 99.6773ZM273.086 75.883V89.6145H285.874C286.783 89.6145 287.621 89.4224 288.39 89.038C289.194 88.6537 289.875 88.147 290.434 87.5181C290.993 86.8892 291.43 86.1729 291.744 85.3693C292.059 84.5307 292.216 83.6572 292.216 82.7488C292.216 81.8054 292.059 80.9144 291.744 80.0758C291.465 79.2373 291.046 78.521 290.486 77.927C289.962 77.2981 289.333 76.8089 288.6 76.4595C287.866 76.0752 287.062 75.883 286.189 75.883H273.086ZM320.149 110.159C317.564 110.159 315.188 109.635 313.021 108.587C310.89 107.504 309.056 106.089 307.518 104.342C305.981 102.56 304.793 100.533 303.954 98.2622C303.116 95.9911 302.696 93.6676 302.696 91.2917C302.696 88.8109 303.133 86.435 304.007 84.1639C304.915 81.8927 306.156 79.8837 307.728 78.1367C309.3 76.3896 311.152 75.0095 313.283 73.9962C315.415 72.948 317.721 72.4239 320.202 72.4239C322.787 72.4239 325.146 72.983 327.277 74.1011C329.443 75.1842 331.278 76.6168 332.78 78.3987C334.317 80.1807 335.505 82.2072 336.344 84.4783C337.182 86.7145 337.602 89.0031 337.602 91.3441C337.602 93.8248 337.148 96.2008 336.239 98.4719C335.366 100.743 334.143 102.752 332.57 104.499C331.033 106.211 329.199 107.591 327.067 108.639C324.936 109.653 322.63 110.159 320.149 110.159ZM306.365 91.2917C306.365 93.3182 306.697 95.2748 307.361 97.1616C308.025 99.0135 308.968 100.673 310.191 102.141C311.414 103.573 312.864 104.726 314.541 105.6C316.218 106.438 318.088 106.858 320.149 106.858C322.246 106.858 324.15 106.403 325.862 105.495C327.574 104.586 329.024 103.398 330.212 101.931C331.4 100.463 332.308 98.8038 332.937 96.952C333.601 95.1001 333.933 93.2134 333.933 91.2917C333.933 89.2651 333.584 87.3259 332.885 85.4741C332.221 83.5873 331.278 81.9277 330.055 80.4951C328.832 79.0626 327.382 77.927 325.705 77.0885C324.027 76.2149 322.176 75.7782 320.149 75.7782C318.053 75.7782 316.148 76.2324 314.436 77.1409C312.724 78.0144 311.274 79.1849 310.086 80.6524C308.898 82.1198 307.972 83.7795 307.309 85.6313C306.68 87.4832 306.365 89.3699 306.365 91.2917ZM373.868 72.686V109.897H370.252V92.4971H348.187V109.897H344.519V72.686H348.187V89.2477H370.252V72.686H373.868ZM394.844 72.686H397.936L413.397 109.897H409.519L404.697 98.2622H387.978L383.209 109.897H379.278L394.844 72.686ZM403.858 95.3797L396.364 76.9836L388.764 95.3797H403.858ZM440.58 82.5391C440.161 87.4657 439.619 91.676 438.956 95.17C438.327 98.6641 437.523 101.529 436.545 103.765C435.601 105.967 434.448 107.591 433.086 108.639C431.758 109.653 430.186 110.159 428.369 110.159L427.74 106.648C428.439 106.613 429.102 106.473 429.731 106.229C430.395 105.984 431.024 105.547 431.618 104.918C432.212 104.254 432.771 103.364 433.295 102.245C433.819 101.092 434.309 99.6249 434.763 97.843C435.217 96.0261 435.619 93.8423 435.968 91.2917C436.353 88.741 436.684 85.7187 436.964 82.2247L437.75 72.686H456.67V109.897H453.054V75.9354H441.104L440.58 82.5391ZM466.229 109.897V72.686H469.898V109.897H466.229ZM508.682 72.686V109.897H505.066V92.4971H483.001V109.897H479.332V72.686H483.001V89.2477H505.066V72.686H508.682ZM518.179 109.897V72.686H521.848V109.897H518.179ZM551.303 109.897V94.9604H541.449L532.435 109.897H528.137L537.676 94.3839C536.523 93.9995 535.475 93.458 534.531 92.7592C533.623 92.0603 532.837 91.2567 532.173 90.3483C531.509 89.4049 530.985 88.3742 530.6 87.2561C530.251 86.138 530.076 84.9675 530.076 83.7446C530.076 82.347 530.356 80.9843 530.915 79.6566C531.474 78.3288 532.26 77.1583 533.273 76.1451C534.287 75.0969 535.492 74.2583 536.89 73.6294C538.322 73.0004 539.895 72.686 541.607 72.686H554.971V109.897H551.303ZM551.303 75.9354H541.764C540.646 75.9354 539.598 76.1451 538.619 76.5643C537.641 76.9487 536.785 77.5077 536.051 78.2415C535.352 78.9403 534.793 79.7614 534.374 80.7048C533.99 81.6482 533.797 82.6614 533.797 83.7446C533.797 84.7928 533.972 85.806 534.322 86.7844C534.671 87.7278 535.16 88.5663 535.789 89.3001C536.453 90.0338 537.257 90.6278 538.2 91.082C539.143 91.5013 540.226 91.7109 541.449 91.7109H551.303V75.9354Z" fill="white"/>
<path d="M275.984 175.636H274.194V172.394H266.128V156.993H267.918V170.833H273.19V156.993H274.98V170.833H275.984V175.636ZM288.722 166.762H280.918C280.918 168.05 281.289 169.112 282.031 169.949C282.781 170.786 283.698 171.204 284.782 171.204C285.815 171.204 286.881 171.019 287.98 170.648L288.275 172.012C287.27 172.463 286.099 172.689 284.76 172.689C283.072 172.689 281.711 172.147 280.678 171.062C279.644 169.978 279.128 168.516 279.128 166.675C279.128 164.87 279.59 163.433 280.514 162.363C281.445 161.286 282.646 160.748 284.116 160.748C285.426 160.748 286.521 161.246 287.401 162.243C288.282 163.24 288.722 164.568 288.722 166.227V166.762ZM286.867 165.376C286.867 164.488 286.59 163.742 286.037 163.138C285.484 162.527 284.865 162.221 284.181 162.221C283.301 162.221 282.57 162.512 281.988 163.094C281.413 163.677 281.092 164.437 281.027 165.376H286.867ZM301.766 172.394H300.041V166.784H294.747V172.394H293.044V161.021H294.747V165.31H300.041V161.021H301.766V172.394ZM315.431 162.494H311.677V172.394H309.985V162.494H306.23V161.021H315.431V162.494ZM321.598 162.494C321.977 161.97 322.486 161.548 323.126 161.228C323.774 160.908 324.454 160.748 325.168 160.748C326.477 160.748 327.503 161.29 328.246 162.374C328.995 163.451 329.37 164.855 329.37 166.587C329.37 168.334 328.977 169.789 328.191 170.953C327.412 172.11 326.361 172.689 325.037 172.689C324.331 172.689 323.669 172.514 323.05 172.165C322.439 171.808 321.955 171.339 321.598 170.757V176.891H319.896V161.021H321.598V162.494ZM321.598 164.186V168.912C321.918 169.552 322.351 170.087 322.897 170.517C323.443 170.946 324.007 171.161 324.589 171.161C325.506 171.161 326.234 170.731 326.772 169.873C327.318 169.014 327.591 167.948 327.591 166.675C327.591 165.365 327.332 164.295 326.816 163.466C326.299 162.636 325.579 162.221 324.655 162.221C323.454 162.221 322.435 162.876 321.598 164.186ZM355.468 172.394H353.743V162.494H348.449V172.394H346.747V161.021H355.468V172.394ZM369.275 166.762H361.471C361.471 168.05 361.842 169.112 362.584 169.949C363.334 170.786 364.251 171.204 365.335 171.204C366.368 171.204 367.434 171.019 368.533 170.648L368.828 172.012C367.824 172.463 366.652 172.689 365.313 172.689C363.625 172.689 362.264 172.147 361.231 171.062C360.198 169.978 359.681 168.516 359.681 166.675C359.681 164.87 360.143 163.433 361.067 162.363C361.999 161.286 363.199 160.748 364.669 160.748C365.979 160.748 367.074 161.246 367.955 162.243C368.835 163.24 369.275 164.568 369.275 166.227V166.762ZM367.42 165.376C367.42 164.488 367.143 163.742 366.59 163.138C366.037 162.527 365.419 162.221 364.735 162.221C363.854 162.221 363.123 162.512 362.541 163.094C361.966 163.677 361.646 164.437 361.58 165.376H367.42ZM375.3 162.494C375.679 161.97 376.188 161.548 376.829 161.228C377.476 160.908 378.157 160.748 378.87 160.748C380.179 160.748 381.206 161.29 381.948 162.374C382.697 163.451 383.072 164.855 383.072 166.587C383.072 168.334 382.679 169.789 381.893 170.953C381.115 172.11 380.063 172.689 378.739 172.689C378.033 172.689 377.371 172.514 376.752 172.165C376.141 171.808 375.657 171.339 375.3 170.757V176.891H373.598V161.021H375.3V162.494ZM375.3 164.186V168.912C375.621 169.552 376.054 170.087 376.599 170.517C377.145 170.946 377.709 171.161 378.291 171.161C379.208 171.161 379.936 170.731 380.474 169.873C381.02 169.014 381.293 167.948 381.293 166.675C381.293 165.365 381.035 164.295 380.518 163.466C380.001 162.636 379.281 162.221 378.357 162.221C377.156 162.221 376.137 162.876 375.3 164.186ZM396.126 166.762H388.322C388.322 168.05 388.693 169.112 389.435 169.949C390.185 170.786 391.102 171.204 392.186 171.204C393.219 171.204 394.285 171.019 395.384 170.648L395.679 172.012C394.675 172.463 393.503 172.689 392.164 172.689C390.476 172.689 389.115 172.147 388.082 171.062C387.049 169.978 386.532 168.516 386.532 166.675C386.532 164.87 386.994 163.433 387.918 162.363C388.85 161.286 390.05 160.748 391.52 160.748C392.83 160.748 393.925 161.246 394.806 162.243C395.686 163.24 396.126 164.568 396.126 166.227V166.762ZM394.271 165.376C394.271 164.488 393.994 163.742 393.441 163.138C392.888 162.527 392.27 162.221 391.586 162.221C390.705 162.221 389.974 162.512 389.392 163.094C388.817 163.677 388.497 164.437 388.431 165.376H394.271ZM407.172 166.358C407.856 166.504 408.424 166.82 408.875 167.308C409.326 167.795 409.552 168.312 409.552 168.858C409.552 169.985 409.159 170.859 408.373 171.477C407.595 172.088 406.689 172.394 405.655 172.394H400.449V161.021H404.968C406.154 161.021 407.111 161.293 407.838 161.839C408.573 162.385 408.941 163.116 408.941 164.033C408.941 164.579 408.77 165.07 408.428 165.507C408.086 165.943 407.667 166.227 407.172 166.358ZM402.152 165.692H405.011C406.438 165.692 407.151 165.161 407.151 164.099C407.151 163.604 406.947 163.214 406.539 162.931C406.132 162.64 405.601 162.494 404.946 162.494H402.152V165.692ZM402.152 170.921H405.35C406.048 170.921 406.619 170.742 407.063 170.386C407.514 170.029 407.74 169.538 407.74 168.912C407.74 168.359 407.493 167.93 406.998 167.624C406.51 167.319 405.87 167.166 405.077 167.166H402.152V170.921ZM418.972 156.72C419.292 156.72 419.565 156.836 419.79 157.069C420.016 157.295 420.129 157.568 420.129 157.888C420.129 158.223 420.016 158.503 419.79 158.728C419.572 158.954 419.299 159.067 418.972 159.067C418.673 159.067 418.408 158.95 418.175 158.717C417.949 158.477 417.836 158.201 417.836 157.888C417.836 157.575 417.949 157.302 418.175 157.069C418.408 156.836 418.673 156.72 418.972 156.72ZM419.801 172.394H418.098V162.494H414.748V161.021H419.801V172.394ZM429.003 162.494C429.381 161.97 429.89 161.548 430.531 161.228C431.178 160.908 431.859 160.748 432.572 160.748C433.882 160.748 434.908 161.29 435.65 162.374C436.399 163.451 436.774 164.855 436.774 166.587C436.774 168.334 436.381 169.789 435.595 170.953C434.817 172.11 433.765 172.689 432.441 172.689C431.735 172.689 431.073 172.514 430.454 172.165C429.843 171.808 429.359 171.339 429.003 170.757V176.891H427.3V161.021H429.003V162.494ZM429.003 164.186V168.912C429.323 169.552 429.756 170.087 430.301 170.517C430.847 170.946 431.411 171.161 431.993 171.161C432.91 171.161 433.638 170.731 434.176 169.873C434.722 169.014 434.995 167.948 434.995 166.675C434.995 165.365 434.737 164.295 434.22 163.466C433.703 162.636 432.983 162.221 432.059 162.221C430.858 162.221 429.839 162.876 429.003 164.186ZM450.604 172.394H448.366L443.541 166.74L442.428 167.701V172.394H440.725V161.021H442.428V165.823L447.766 161.021H449.938L444.753 165.67L450.604 172.394ZM462.872 172.394H461.147V163.586L456.094 172.394H454.151V161.021H455.854V169.873L460.929 161.021H462.872V172.394ZM486.208 162.494C486.732 161.33 487.515 160.748 488.555 160.748C490.542 160.748 491.535 162.676 491.535 166.533C491.535 170.637 490.571 172.689 488.643 172.689C488.097 172.689 487.635 172.55 487.256 172.274C486.885 171.997 486.536 171.492 486.208 170.757V176.891H484.517V170.757C484.182 171.492 483.829 171.997 483.458 172.274C483.087 172.55 482.625 172.689 482.072 172.689C480.151 172.689 479.19 170.637 479.19 166.533C479.19 162.676 480.183 160.748 482.17 160.748C483.21 160.748 483.993 161.33 484.517 162.494V156.993H486.208V162.494ZM484.517 168.912V164.186C484.284 163.575 484 163.094 483.665 162.745C483.331 162.396 483.003 162.221 482.683 162.221C482.115 162.221 481.69 162.52 481.406 163.116C481.122 163.713 480.98 164.884 480.98 166.631C480.98 167.882 481.035 168.81 481.144 169.414C481.26 170.018 481.431 170.462 481.657 170.746C481.882 171.022 482.17 171.161 482.519 171.161C482.825 171.161 483.101 171.062 483.349 170.866C483.603 170.662 483.862 170.298 484.124 169.774C484.386 169.243 484.517 168.956 484.517 168.912ZM486.208 168.912C486.609 169.858 486.954 170.469 487.245 170.746C487.536 171.022 487.853 171.161 488.195 171.161C488.712 171.161 489.097 170.844 489.352 170.211C489.614 169.578 489.745 168.385 489.745 166.631C489.745 165.372 489.683 164.459 489.559 163.891C489.436 163.316 489.247 162.894 488.992 162.625C488.744 162.356 488.428 162.221 488.042 162.221C487.613 162.221 487.198 162.505 486.798 163.073C486.405 163.633 486.208 164.004 486.208 164.186V168.912ZM503.476 172.394H501.784C501.646 171.936 501.577 171.324 501.577 170.56C500.609 171.979 499.292 172.689 497.626 172.689C496.782 172.689 496.036 172.39 495.388 171.794C494.748 171.19 494.428 170.415 494.428 169.469C494.428 168.908 494.54 168.414 494.766 167.984C494.991 167.555 495.323 167.195 495.759 166.904C496.196 166.605 496.727 166.373 497.353 166.205C497.979 166.031 498.721 165.91 499.579 165.845L501.49 165.692V165.146C501.49 163.196 500.58 162.221 498.761 162.221C498.331 162.221 497.786 162.316 497.124 162.505C496.469 162.687 495.905 162.905 495.432 163.16L494.984 161.937C496.534 161.144 497.975 160.748 499.307 160.748C501.897 160.748 503.192 162.119 503.192 164.863V169.753C503.192 170.742 503.287 171.623 503.476 172.394ZM501.49 169.021V166.958C499.954 167.097 498.899 167.228 498.324 167.351C497.757 167.468 497.262 167.69 496.84 168.017C496.425 168.345 496.218 168.788 496.218 169.349C496.218 169.858 496.396 170.269 496.752 170.582C497.109 170.895 497.564 171.051 498.117 171.051C498.721 171.051 499.321 170.873 499.918 170.517C500.515 170.153 501.038 169.654 501.49 169.021ZM517.731 172.394H515.494L510.669 166.74L509.556 167.701V172.394H507.853V161.021H509.556V165.823L514.893 161.021H517.065L511.881 165.67L517.731 172.394ZM530.24 162.494H526.485V172.394H524.793V162.494H521.038V161.021H530.24V162.494ZM539.801 156.72C540.122 156.72 540.395 156.836 540.62 157.069C540.846 157.295 540.958 157.568 540.958 157.888C540.958 158.223 540.846 158.503 540.62 158.728C540.402 158.954 540.129 159.067 539.801 159.067C539.503 159.067 539.238 158.95 539.005 158.717C538.779 158.477 538.666 158.201 538.666 157.888C538.666 157.575 538.779 157.302 539.005 157.069C539.238 156.836 539.503 156.72 539.801 156.72ZM540.631 172.394H538.928V162.494H535.577V161.021H540.631V172.394ZM554.853 166.358C555.537 166.504 556.105 166.82 556.556 167.308C557.007 167.795 557.233 168.312 557.233 168.858C557.233 169.985 556.84 170.859 556.054 171.477C555.275 172.088 554.369 172.394 553.336 172.394H548.13V161.021H552.649C553.835 161.021 554.791 161.293 555.519 161.839C556.254 162.385 556.622 163.116 556.622 164.033C556.622 164.579 556.451 165.07 556.109 165.507C555.767 165.943 555.348 166.227 554.853 166.358ZM549.832 165.692H552.692C554.118 165.692 554.832 165.161 554.832 164.099C554.832 163.604 554.628 163.214 554.22 162.931C553.813 162.64 553.282 162.494 552.627 162.494H549.832V165.692ZM549.832 170.921H553.031C553.729 170.921 554.3 170.742 554.744 170.386C555.195 170.029 555.421 169.538 555.421 168.912C555.421 168.359 555.174 167.93 554.679 167.624C554.191 167.319 553.551 167.166 552.758 167.166H549.832V170.921Z" fill="white"/>
<g clip-path="url(#clip0_26_6073)">
<path d="M81.6502 148.592C91.5466 193.779 129.962 216.145 163.675 216.261C196.47 216.377 239.287 192.26 246.184 142.691H252.24C251.737 174.518 222.793 217.054 174.404 222.597C118.508 229.001 80.1314 186.949 75.1396 148.592H81.6599H81.6502Z" fill="white"/>
<mask id="path-4-inside-1_26_6073" fill="white">
<path d="M203.02 48.1655C189.962 41.98 175.631 38.9581 161.187 39.3446C146.744 39.731 132.594 43.515 119.886 50.3899C107.178 57.2648 96.268 67.0371 88.041 78.9148C79.8139 90.7926 74.5011 104.442 72.533 118.756L79.7732 119.751C81.5849 106.574 86.4756 94.0101 94.0489 83.0762C101.622 72.1423 111.665 63.1465 123.363 56.8179C135.062 50.4894 148.087 47.006 161.383 46.6503C174.679 46.2945 187.871 49.0763 199.891 54.7702L203.02 48.1655Z"/>
</mask>
<path d="M203.02 48.1655C189.962 41.98 175.631 38.9581 161.187 39.3446C146.744 39.731 132.594 43.515 119.886 50.3899C107.178 57.2648 96.268 67.0371 88.041 78.9148C79.8139 90.7926 74.5011 104.442 72.533 118.756L79.7732 119.751C81.5849 106.574 86.4756 94.0101 94.0489 83.0762C101.622 72.1423 111.665 63.1465 123.363 56.8179C135.062 50.4894 148.087 47.006 161.383 46.6503C174.679 46.2945 187.871 49.0763 199.891 54.7702L203.02 48.1655Z" stroke="white" stroke-width="18.2846" stroke-linejoin="round" mask="url(#path-4-inside-1_26_6073)"/>
<path d="M5.85215 127.967C5.00798 127.976 4.19838 128.314 3.60146 128.913C3.00454 129.512 2.66919 130.322 2.66919 131.167C2.66919 132.011 3.00454 132.821 3.60146 133.42C4.19838 134.019 5.00798 134.357 5.85215 134.366C5.85215 134.366 5.85215 134.366 5.85215 134.366C11.6191 134.427 17.3861 134.458 23.1531 134.458C26.9932 134.458 30.8333 134.457 34.6734 134.456C207.601 134.414 380.528 133.428 553.455 131.497C563.062 131.39 572.669 131.28 582.276 131.166C582.276 131.166 582.276 131.166 582.276 131.166C572.669 131.053 563.062 130.943 553.455 130.836C380.528 128.905 207.601 127.919 34.6734 127.877C30.8333 127.876 26.9932 127.875 23.1531 127.875C17.3861 127.875 11.6191 127.906 5.85215 127.967Z" fill="#C90000"/>
</g>
<path d="M603.116 139.054C607.407 139.054 610.887 135.575 610.887 131.283C610.887 126.991 607.407 123.512 603.116 123.512C598.824 123.512 595.345 126.991 595.345 131.283C595.345 135.575 598.824 139.054 603.116 139.054Z" fill="#C90000"/>
<defs>
<clipPath id="clip0_26_6073">
<rect width="610.812" height="223.255" fill="white"/>
</clipPath>
</defs>
</svg>
