<svg aria-hidden="true" style="position: absolute; width: 0; height: 0; overflow: hidden;" version="1.1" xmlns="http://www.w3.org/2000/svg" xmlns:xlink="http://www.w3.org/1999/xlink">
<defs>
<symbol id="book-svgrepo-com" viewBox="0 0 32 32">
<path d="M27.832 8.595c-0.107-0.107-0.253-0.167-0.404-0.167-0.002 0-0.002 0-0.002 0l-1.713 0.006v-2.291c0-0.316-0.256-0.571-0.571-0.571h-0.715c-4.292 0-6.806 0.622-8.428 2.127-1.622-1.505-4.136-2.127-8.428-2.127h-0.714c-0.315 0-0.571 0.255-0.571 0.571v2.291l-1.713-0.006c-0.155-0.001-0.298 0.060-0.406 0.167s-0.167 0.254-0.167 0.405v14.714c0 0.316 0.256 0.571 0.572 0.571h0.714c7.69 0 9.333 1.735 9.495 1.935 0.109 0.13 0.27 0.208 0.442 0.208h1.552c0.173 0 0.334-0.078 0.443-0.208 0.162-0.2 1.806-1.935 9.495-1.935h0.714c0.316 0 0.572-0.255 0.572-0.571v-14.714c-0.001-0.151-0.062-0.298-0.169-0.405zM5.143 23.143v-13.57l1.143 0.005v13.576c-0.323-0.007-0.656-0.010-1-0.010h-0.143zM7.429 23.19v-14.178c0-0.002 0-0.003 0-0.006v-2.291h0.143c4.177 0 6.481 0.59 7.856 2.027v16.506c-0.757-0.695-2.777-1.814-7.999-2.057zM16.572 25.247v-16.506c1.374-1.437 3.68-2.027 7.856-2.027h0.143v16.476c-5.224 0.242-7.242 1.362-7.999 2.057zM26.857 23.143h-0.143c-0.345 0-0.677 0.003-1 0.010v-13.576l1.143-0.005v13.57z"></path>
</symbol>
<symbol id="chat-svgrepo-com" viewBox="0 0 32 32">
<path d="M26.986 8.445h-7.075c-0.034-1.19-1.008-2.149-2.206-2.149h-12.69c-1.221 0-2.214 0.992-2.214 2.214v8.324c0 1.222 0.993 2.214 2.214 2.214h1.034l3.71 4.282c0.125 0.145 0.306 0.226 0.495 0.226 0.075 0 0.152-0.013 0.23-0.041 0.254-0.095 0.426-0.342 0.426-0.614v-3.853h1.182c0.034 1.19 1.008 2.15 2.206 2.15h6.798v3.852c0 0.272 0.171 0.518 0.427 0.615 0.076 0.027 0.152 0.040 0.227 0.040 0.189 0 0.37-0.082 0.495-0.225l3.71-4.282h1.033c1.221 0 2.214-0.993 2.214-2.214v-8.325c-0.001-1.222-0.994-2.214-2.215-2.214zM12.082 10.658v7.078h-1.83c-0.362 0-0.655 0.294-0.655 0.655v2.752l-2.754-3.182c-0.126-0.142-0.306-0.226-0.517-0.226 0 0-1.31 0-1.31 0-0.498 0-0.903-0.404-0.903-0.903v-8.323c0-0.498 0.406-0.904 0.903-0.904h12.691c0.475 0 0.854 0.373 0.889 0.839h-4.299c-1.221 0-2.214 0.992-2.214 2.214zM27.89 18.983c0 0.498-0.406 0.903-0.904 0.903h-1.331c-0.189 0-0.37 0.082-0.497 0.226l-2.754 3.182v-2.752c0-0.361-0.294-0.654-0.655-0.654h-7.454c-0.498 0-0.902-0.405-0.902-0.903v-8.326c0-0.498 0.405-0.904 0.902-0.904h12.691c0.498 0 0.904 0.406 0.904 0.904v8.325z"></path>
<path d="M26.273 11.762h-11.264c-0.362 0-0.655 0.294-0.655 0.654s0.294 0.655 0.655 0.655h11.264c0.362 0 0.656-0.294 0.656-0.655s-0.294-0.654-0.656-0.654z"></path>
<path d="M26.273 14.165h-11.264c-0.362 0-0.655 0.294-0.655 0.655s0.294 0.655 0.655 0.655h11.264c0.362 0 0.656-0.294 0.656-0.655s-0.294-0.655-0.656-0.655z"></path>
<path d="M20.341 16.568h-5.332c-0.362 0-0.655 0.294-0.655 0.654s0.294 0.655 0.655 0.655h5.332c0.361 0 0.654-0.294 0.654-0.655s-0.294-0.654-0.654-0.654z"></path>
</symbol>
<symbol id="home-svgrepo-com" viewBox="0 0 32 32">
<path d="M28.534 14.593l-12.153-8.838c-0.11-0.082-0.242-0.124-0.381-0.124s-0.27 0.043-0.382 0.124l-5.372 3.907v-1.48c0-0.424-0.297-0.769-0.662-0.769h-2.917c-0.366 0-0.662 0.346-0.662 0.769v4.565l-2.538 1.846c-0.289 0.21-0.353 0.617-0.142 0.906 0.121 0.166 0.318 0.266 0.524 0.266 0.138 0 0.269-0.042 0.382-0.123l1.857-1.35v11.432c0 0.358 0.29 0.649 0.648 0.649h6.542c0.358 0 0.648-0.29 0.648-0.649v-7.772h4.153v7.772c0 0.358 0.29 0.649 0.647 0.649h6.542c0.358 0 0.649-0.29 0.649-0.649v-11.432l1.858 1.35c0.11 0.081 0.241 0.123 0.38 0.123 0.207 0 0.403-0.099 0.525-0.266 0.207-0.29 0.143-0.695-0.145-0.906zM7.33 8.95h1.593v1.674l-1.593 1.158v-2.832zM24.618 25.074h-5.246v-7.771c0-0.357-0.29-0.648-0.649-0.648h-5.447c-0.358 0-0.648 0.291-0.648 0.648v7.771h-5.245v-11.726l8.618-6.267 8.618 6.267v11.726z"></path>
</symbol>
<symbol id="subway-svgrepo-com" viewBox="0 0 32 32">
<path d="M21.667 4c2.761 0 5 2.239 5 5v12c0 2.367-1.645 4.35-3.854 4.868l3.284 1.562c0.499 0.237 0.71 0.834 0.473 1.333-0.218 0.457-0.737 0.673-1.206 0.523l-0.126-0.050-6.797-3.236h-4.881l-6.795 3.236c-0.499 0.237-1.095 0.026-1.333-0.473s-0.026-1.095 0.473-1.333l3.283-1.563c-2.209-0.518-3.853-2.501-3.853-4.868v-12c0-2.761 2.239-5 5-5h11.333zM24.666 18.667h-17.333l0 2.333c0 1.657 1.343 3 3 3h11.333c1.657 0 3-1.343 3-3l-0-2.333zM10.667 20c0.736 0 1.333 0.597 1.333 1.333s-0.597 1.333-1.333 1.333c-0.736 0-1.333-0.597-1.333-1.333s0.597-1.333 1.333-1.333zM21.333 20c0.736 0 1.333 0.597 1.333 1.333s-0.597 1.333-1.333 1.333c-0.736 0-1.333-0.597-1.333-1.333s0.597-1.333 1.333-1.333zM21.667 6h-11.333c-1.657 0-3 1.343-3 3l-0 7.667h17.333l0-7.667c0-1.657-1.343-3-3-3zM17.667 8c0.552 0 1 0.448 1 1s-0.448 1-1 1h-3.333c-0.552 0-1-0.448-1-1s0.448-1 1-1h3.333z"></path>
</symbol>
<symbol id="vehicle-car-svgrepo-com" viewBox="0 0 32 32">
<path d="M21.066 4c1.987 0 3.72 1.352 4.203 3.28l0.514 2.054h1.217c0.506 0 0.925 0.376 0.991 0.864l0.009 0.136c0 0.506-0.376 0.925-0.864 0.991l-0.136 0.009h-0.715l0.277 1.102c0.865 0.526 1.443 1.478 1.443 2.565v11.329c0 1.289-1.045 2.333-2.333 2.333h-2.005c-1.289 0-2.333-1.045-2.333-2.333l-0.001-1.662h-10.66l0 1.662c0 1.289-1.045 2.333-2.333 2.333h-2.005c-1.289 0-2.333-1.045-2.333-2.333v-11.329c0-1.086 0.578-2.038 1.442-2.564l0.276-1.102h-0.719c-0.506 0-0.925-0.376-0.991-0.864l-0.009-0.136c0-0.506 0.376-0.925 0.864-0.991l0.136-0.009h1.217l0.515-2.051c0.482-1.929 2.216-3.282 4.204-3.282h10.13zM8.672 24.667h-2.673l0.001 1.662c0 0.184 0.149 0.333 0.333 0.333h2.005c0.184 0 0.333-0.149 0.333-0.333l-0-1.662zM26.005 24.667h-2.673l0.001 1.662c0 0.184 0.149 0.333 0.333 0.333h2.005c0.184 0 0.333-0.149 0.333-0.333l-0-1.662zM25.005 14h-18.005c-0.552 0-1 0.448-1 1v7.667h20.005v-7.667c0-0.552-0.448-1-1-1zM13.665 18.667h4.669c0.552 0 1 0.448 1 1 0 0.506-0.376 0.925-0.864 0.991l-0.136 0.009h-4.669c-0.552 0-1-0.448-1-1 0-0.506 0.376-0.925 0.864-0.991l0.136-0.009zM22.667 16c0.736 0 1.333 0.597 1.333 1.333s-0.597 1.333-1.333 1.333c-0.736 0-1.333-0.597-1.333-1.333s0.597-1.333 1.333-1.333zM9.333 16c0.736 0 1.333 0.597 1.333 1.333s-0.597 1.333-1.333 1.333-1.333-0.597-1.333-1.333c0-0.736 0.597-1.333 1.333-1.333zM21.066 6h-10.13c-1.071 0-2.004 0.729-2.264 1.767l-1.058 4.233h16.776l-1.061-4.234c-0.26-1.038-1.193-1.766-2.263-1.766z"></path>
</symbol>
<symbol id="address-card-outlined-svgrepo-com" viewBox="0 0 32 32">
<path d="M28.61 27.897h-25.221c-1.81 0-3.283-1.472-3.283-3.283v-17.228c0-1.81 1.472-3.283 3.283-3.283h25.221c1.81 0 3.283 1.472 3.283 3.283v17.228c-0 1.81-1.473 3.283-3.283 3.283zM3.389 6.044c-0.74 0-1.341 0.602-1.341 1.342v17.228c0 0.74 0.602 1.342 1.341 1.342h25.221c0.74 0 1.341-0.602 1.341-1.342v-17.228c0-0.74-0.602-1.342-1.341-1.342h-25.221z"></path>
<path d="M14.852 20.299c-0.383-1.336-1.25-2.465-2.399-3.189-0.227-0.143-0.521-0.12-0.722 0.057-0.617 0.543-1.38 0.867-2.208 0.867-0.845 0-1.621-0.336-2.244-0.898-0.199-0.18-0.492-0.207-0.72-0.067-1.183 0.722-2.078 1.869-2.468 3.231-0.105 0.365-0.031 0.759 0.198 1.063s0.587 0.482 0.968 0.482h8.432c0.38 0 0.739-0.178 0.968-0.482s0.302-0.697 0.197-1.063z"></path>
<path d="M12.528 13.655c0 1.961-1.346 3.55-3.006 3.55s-3.005-1.59-3.005-3.55c0-1.961 1.346-3.55 3.005-3.55s3.006 1.589 3.006 3.55z"></path>
<path d="M25.994 12.083h-7.337c-0.536 0-0.971-0.435-0.971-0.97s0.435-0.971 0.971-0.971h7.337c0.536 0 0.971 0.434 0.971 0.971s-0.434 0.97-0.971 0.97z"></path>
<path d="M25.994 16.932h-7.337c-0.536 0-0.971-0.435-0.971-0.971s0.435-0.971 0.971-0.971h7.337c0.536 0 0.971 0.435 0.971 0.971s-0.434 0.971-0.971 0.971z"></path>
<path d="M25.994 21.78h-7.337c-0.536 0-0.971-0.435-0.971-0.97s0.435-0.971 0.971-0.971h7.337c0.536 0 0.971 0.435 0.971 0.971s-0.434 0.97-0.971 0.97z"></path>
</symbol>
<symbol id="book-svgrepo-com1" viewBox="0 0 32 32">
<path d="M26.593 0.060h-18.669c-2.491 0-4.517 2.026-4.517 4.517v22.847c0 2.491 2.026 4.517 4.517 4.517h18.669c1.103 0 2-0.897 2-2v-27.881c0-1.103-0.897-2-2-2zM26.626 29.4c0 0.151-0.060 0.297-0.167 0.404s-0.252 0.167-0.404 0.167h-18.131c-1.405 0-2.548-1.143-2.548-2.548v-19.118c0.726 0.498 1.603 0.789 2.548 0.789h18.128c0.316 0 0.571 0.256 0.571 0.571l0.003 19.735zM26.624 7.125h-18.7c-1.405 0-2.548-1.143-2.548-2.548s1.143-2.548 2.548-2.548h18.669c0.017 0 0.031 0.014 0.031 0.031v5.065z"></path>
<path d="M11.528 16.31h8.944c0.544 0 0.985-0.441 0.985-0.985s-0.441-0.985-0.985-0.985h-8.944c-0.544 0-0.985 0.441-0.985 0.985s0.441 0.985 0.985 0.985z"></path>
</symbol>
<symbol id="comment-outlined-svgrepo-com" viewBox="0 0 32 32">
<path d="M5.385 29.425c-0.37 0-0.726-0.11-1.032-0.318-0.623-0.425-0.919-1.175-0.756-1.91l1.023-4.605c0.069-0.309-0.048-0.634-0.298-0.828-2.712-2.11-4.206-4.866-4.206-7.761 0-6.301 7.125-11.428 15.884-11.428s15.884 5.126 15.884 11.428c0 6.301-7.125 11.427-15.884 11.427-1.057 0-2.118-0.076-3.154-0.226-0.329-0.047-0.668 0.030-0.946 0.216l-5.495 3.693c-0.303 0.204-0.656 0.312-1.021 0.312zM16 4.565c-7.661 0-13.894 4.234-13.894 9.438 0 2.267 1.221 4.465 3.438 6.19 0.853 0.664 1.253 1.775 1.019 2.83l-0.937 4.217 5.165-3.472c0.685-0.46 1.524-0.651 2.34-0.534 0.942 0.137 1.907 0.205 2.869 0.205 7.661 0 13.894-4.234 13.894-9.437s-6.233-9.438-13.894-9.438z"></path>
</symbol>
<symbol id="eye-svgrepo-com" viewBox="0 0 32 32">
<path d="M31.461 14.33c-1.477-2.084-6.955-8.883-15.461-8.883s-13.985 6.799-15.461 8.883c-0.718 1.014-0.719 2.325-0 3.34 1.476 2.084 6.955 8.883 15.461 8.883 8.508 0 13.985-6.799 15.461-8.883 0.719-1.014 0.719-2.325 0.001-3.34zM9.204 11.195c0.277-0.773 0.689-1.497 1.21-2.134 0.392-0.479 0.912-0.827 1.504-1.008 1.258-0.386 2.62-0.618 4.081-0.618s2.823 0.232 4.081 0.618c0.589 0.181 1.113 0.531 1.504 1.008 0.522 0.637 0.934 1.361 1.21 2.134 0.279 0.778 0.42 1.597 0.42 2.433 0 3.978-3.237 7.215-7.215 7.215s-7.215-3.237-7.215-7.215c0-0.836 0.142-1.655 0.42-2.433zM29.838 16.521c-1.337 1.887-6.285 8.044-13.839 8.044-7.552 0-12.502-6.157-13.839-8.044-0.228-0.322-0.228-0.721 0-1.042 0.732-1.033 2.548-3.344 5.278-5.225-0.036 0.090-0.074 0.18-0.107 0.271-0.356 0.994-0.536 2.038-0.536 3.103 0 5.075 4.129 9.203 9.204 9.203s9.204-4.128 9.204-9.203c0-1.065-0.181-2.109-0.537-3.103-0.033-0.091-0.071-0.18-0.107-0.271 2.731 1.881 4.547 4.193 5.278 5.225 0.228 0.321 0.228 0.72-0 1.042z"></path>
<path d="M16.033 18.614c2.724 0 4.932-2.208 4.932-4.932s-2.208-4.932-4.932-4.932c-0.776 0-1.51 0.18-2.163 0.499 1.086 0.087 1.939 0.992 1.939 2.1 0 1.164-0.944 2.108-2.109 2.108-1.107 0-2.013-0.854-2.1-1.938-0.32 0.653-0.499 1.387-0.499 2.163-0 2.724 2.208 4.932 4.932 4.932z"></path>
</symbol>
<symbol id="map-marker-outlined-svgrepo-com" viewBox="0 0 32 32">
<path d="M16.886 31.549c-0.206 0.283-0.536 0.451-0.886 0.451s-0.68-0.168-0.886-0.451l-8.954-12.289c-1.508-2.084-2.305-4.544-2.305-7.115 0-6.697 5.448-12.145 12.145-12.145s12.145 5.448 12.145 12.145c0 2.574-0.795 5.034-2.3 7.113l-8.959 12.292zM16 2.037c-5.573 0-10.108 4.534-10.108 10.108 0 2.14 0.663 4.186 1.916 5.918l8.192 11.243 8.196-11.245c1.25-1.727 1.911-3.773 1.911-5.916 0-5.573-4.534-10.108-10.108-10.108zM16 17.647c-3.034 0-5.502-2.468-5.502-5.502s2.468-5.502 5.502-5.502c3.034 0 5.502 2.468 5.502 5.502s-2.468 5.502-5.502 5.502zM16 8.681c-1.91 0-3.464 1.554-3.464 3.464s1.554 3.465 3.464 3.465c1.91 0 3.465-1.554 3.465-3.465s-1.554-3.464-3.465-3.464z"></path>
</symbol>
<symbol id="paper-plane-outlined-svgrepo-com" viewBox="0 0 32 32">
<path d="M32 1.578l-31.433 13.144c-0.331 0.138-0.552 0.456-0.567 0.815s0.18 0.693 0.499 0.858l7.948 4.102 0.999 8.763c0.061 0.536 0.437 0.973 0.957 1.115 0.112 0.030 0.228 0.046 0.344 0.046 0.409 0 0.8-0.195 1.046-0.521l4.165-5.526 9.791 5.053c0.26 0.134 0.569 0.137 0.832 0.008s0.448-0.376 0.501-0.664l4.917-27.193zM9.25 18.716l-5.898-3.044 21.055-8.804-15.157 11.848zM11.204 27.443l-0.814-7.142 15.086-11.793-14.272 18.935zM17.151 22.794l11.88-15.761-3.62 20.024-8.26-4.263z"></path>
</symbol>
<symbol id="user-o-svgrepo-com" viewBox="0 0 32 32">
<path d="M31.653 26.524c-1.078-3.76-4.052-7.258-8.234-9.729 1.082-1.743 1.72-3.88 1.72-6.188 0-5.849-4.1-10.608-9.139-10.608s-9.138 4.759-9.138 10.608c0 2.307 0.638 4.445 1.719 6.187-4.182 2.471-7.156 5.97-8.234 9.729-0.369 1.286-0.108 2.694 0.7 3.768 0.808 1.069 2.089 1.708 3.427 1.708h23.052c1.338 0 2.619-0.639 3.428-1.71 0.807-1.072 1.068-2.48 0.699-3.766zM16 2.043c3.913 0 7.096 3.842 7.096 8.565s-3.183 8.566-7.096 8.566c-3.912 0-7.096-3.843-7.096-8.566s3.183-8.565 7.096-8.565zM29.323 29.061c-0.424 0.561-1.096 0.897-1.797 0.897h-23.052c-0.701 0-1.373-0.335-1.796-0.895-0.424-0.563-0.561-1.301-0.368-1.975 0.892-3.111 3.456-6.151 6.972-8.328 0.31-0.192 0.712-0.152 0.978 0.098 1.57 1.475 3.567 2.36 5.74 2.36s4.17-0.884 5.74-2.359c0.266-0.25 0.667-0.29 0.978-0.097 3.516 2.177 6.080 5.217 6.972 8.328 0.194 0.674 0.056 1.412-0.366 1.973z"></path>
</symbol>
<symbol id="alarm-thin-svgrepo-com" viewBox="0 0 32 32">
<path d="M23.5 16c0 0.276-0.224 0.5-0.5 0.5h-7c-0.276 0-0.5-0.224-0.5-0.5v0-7c0-0.276 0.224-0.5 0.5-0.5s0.5 0.224 0.5 0.5v0 6.5h6.5c0.276 0 0.5 0.224 0.5 0.5v0zM24.132 7.868c2.081 2.081 3.368 4.956 3.368 8.132 0 6.351-5.149 11.5-11.5 11.5s-11.5-5.149-11.5-11.5c0-6.351 5.149-11.5 11.5-11.5v0c0.009-0 0.020-0 0.031-0 3.166 0 6.031 1.288 8.1 3.368l0 0zM26.5 16c0-5.799-4.701-10.5-10.5-10.5-2.899 0-5.524 1.175-7.425 3.075v0c-1.9 1.9-3.075 4.525-3.075 7.425 0 5.799 4.701 10.5 10.5 10.5s10.5-4.701 10.5-10.5v0zM29.081 7.161l-4.243-4.243c-0.090-0.090-0.215-0.146-0.353-0.146-0.276 0-0.5 0.224-0.5 0.5 0 0.138 0.056 0.263 0.146 0.353v0l4.243 4.243c0.090 0.091 0.216 0.147 0.354 0.147 0.276 0 0.5-0.224 0.5-0.5 0-0.138-0.056-0.263-0.147-0.354v0zM7.868 2.919c-0.090-0.090-0.215-0.146-0.354-0.146s-0.263 0.056-0.354 0.146l-4.243 4.243c-0.090 0.090-0.146 0.215-0.146 0.353 0 0.276 0.224 0.5 0.5 0.5 0.138 0 0.263-0.056 0.353-0.146v0l4.243-4.243c0.090-0.090 0.146-0.215 0.146-0.354s-0.056-0.263-0.146-0.354v0z"></path>
</symbol>
<symbol id="bag-simple-thin-svgrepo-com" viewBox="0 0 32 32">
<path d="M27 8.5h-5.524c-0.264-2.815-2.615-5-5.476-5s-5.212 2.185-5.475 4.978l-0.002 0.022h-5.524c-0.828 0.001-1.499 0.672-1.5 1.5v16c0.001 0.828 0.672 1.499 1.5 1.5h22c0.828-0.001 1.499-0.672 1.5-1.5v-16c-0.001-0.828-0.672-1.499-1.5-1.5h-0zM16 4.5c2.308 0.003 4.209 1.741 4.47 3.979l0.002 0.021h-8.943c0.263-2.259 2.164-3.997 4.471-4h0zM27.5 26c-0 0.276-0.224 0.5-0.5 0.5h-22c-0.276-0-0.5-0.224-0.5-0.5v-16c0-0.276 0.224-0.5 0.5-0.5h22c0.276 0 0.5 0.224 0.5 0.5v0z"></path>
</symbol>
<symbol id="briefcase-thin-svgrepo-com" viewBox="0 0 32 32">
<path d="M27.001 8.5h-5.501v-1.5c-0.002-1.38-1.12-2.498-2.5-2.5h-6c-1.38 0.002-2.498 1.12-2.5 2.5v1.5h-5.499c-0.828 0.001-1.499 0.672-1.5 1.5v16c0.001 0.828 0.672 1.499 1.5 1.5h22c0.828-0.001 1.499-0.672 1.5-1.5v-16c-0.001-0.828-0.672-1.499-1.5-1.5h-0zM11.5 7c0.001-0.828 0.672-1.499 1.5-1.5h6c0.828 0.001 1.499 0.672 1.5 1.5v1.5h-9zM5.001 9.5h22c0.276 0 0.5 0.224 0.5 0.5v5.495c-3.309 1.891-7.273 3.005-11.497 3.005-0.001 0-0.003 0-0.004 0h0c-0.001 0-0.003 0-0.004 0-4.223 0-8.186-1.114-11.611-3.065l0.116 0.061v-5.496c0-0.276 0.224-0.5 0.5-0.5h0zM27.001 26.5h-22c-0.276-0-0.5-0.224-0.5-0.5v-9.362c3.329 1.802 7.287 2.862 11.493 2.862 0.002 0 0.004 0 0.006 0h-0c0.002 0 0.004 0 0.006 0 4.207 0 8.166-1.060 11.625-2.927l-0.13 0.064v9.363c-0 0.276-0.224 0.5-0.5 0.5h-0zM14 15c0-0.276 0.224-0.5 0.5-0.5h3c0.276 0 0.5 0.224 0.5 0.5s-0.224 0.5-0.5 0.5v0h-3c-0.276 0-0.5-0.224-0.5-0.5v0z"></path>
</symbol>
<symbol id="calendar-thin-svgrepo-com" viewBox="0 0 32 32">
<path d="M26 4.5h-3.5v-1.5c0-0.276-0.224-0.5-0.5-0.5s-0.5 0.224-0.5 0.5v0 1.5h-11v-1.5c0-0.276-0.224-0.5-0.5-0.5s-0.5 0.224-0.5 0.5v0 1.5h-3.5c-0.828 0.001-1.499 0.672-1.5 1.5v20c0.001 0.828 0.672 1.499 1.5 1.5h20c0.828-0.001 1.499-0.672 1.5-1.5v-20c-0.001-0.828-0.672-1.499-1.5-1.5h-0zM6 5.5h3.5v1.5c0 0.276 0.224 0.5 0.5 0.5s0.5-0.224 0.5-0.5v0-1.5h11v1.5c0 0.276 0.224 0.5 0.5 0.5s0.5-0.224 0.5-0.5v0-1.5h3.5c0.276 0 0.5 0.224 0.5 0.5v4.5h-21v-4.5c0-0.276 0.224-0.5 0.5-0.5h0zM26 26.5h-20c-0.276-0-0.5-0.224-0.5-0.5v-14.5h21v14.5c-0 0.276-0.224 0.5-0.5 0.5h-0zM15.5 20.5c0 0 0 0 0 0 0 1.381-1.119 2.5-2.5 2.5-0.69 0-1.314-0.279-1.767-0.731l0 0c-0.090-0.090-0.146-0.215-0.146-0.353 0-0.276 0.224-0.5 0.5-0.5 0.138 0 0.262 0.056 0.353 0.146l-0-0c0.271 0.271 0.646 0.439 1.060 0.439 0.828 0 1.5-0.672 1.5-1.5s-0.672-1.5-1.5-1.5c0 0 0 0 0 0v0c0 0 0 0 0 0-0.276 0-0.5-0.224-0.5-0.5 0-0.119 0.041-0.228 0.11-0.313l-0.001 0.001 1.35-1.688h-2.46c-0.276 0-0.5-0.224-0.5-0.5s0.224-0.5 0.5-0.5v0h3.5c0 0 0 0 0 0 0.276 0 0.5 0.224 0.5 0.5 0 0.119-0.041 0.228-0.11 0.313l0.001-0.001-1.486 1.857c0.941 0.374 1.594 1.276 1.595 2.33v0zM20.5 16v6.5c0 0.276-0.224 0.5-0.5 0.5s-0.5-0.224-0.5-0.5v0-5.5l-1.2 0.9c-0.083 0.063-0.187 0.1-0.301 0.1-0.276 0-0.5-0.224-0.5-0.5 0-0.163 0.078-0.308 0.199-0.4l0.001-0.001 2-1.5c0.083-0.062 0.187-0.1 0.3-0.1 0.276 0 0.5 0.224 0.5 0.5 0 0 0 0 0 0v0z"></path>
</symbol>
<symbol id="caret-double-down-thin-svgrepo-com" viewBox="0 0 32 32">
<path d="M26.354 15.646c0.090 0.091 0.146 0.216 0.146 0.354s-0.056 0.263-0.146 0.354l-10 10c-0.090 0.090-0.215 0.146-0.354 0.146s-0.263-0.056-0.354-0.146l-10-10c-0.090-0.090-0.146-0.215-0.146-0.353 0-0.276 0.224-0.5 0.5-0.5 0.138 0 0.263 0.056 0.353 0.146v0l9.646 9.646 9.646-9.646c0.090-0.090 0.215-0.146 0.354-0.146s0.263 0.056 0.354 0.146v0zM15.646 16.354c0.091 0.090 0.216 0.146 0.354 0.146s0.263-0.056 0.354-0.146l10-10c0.090-0.090 0.146-0.215 0.146-0.353 0-0.276-0.224-0.5-0.5-0.5-0.138 0-0.263 0.056-0.353 0.146v0l-9.646 9.646-9.646-9.646c-0.090-0.090-0.215-0.146-0.353-0.146-0.276 0-0.5 0.224-0.5 0.5 0 0.138 0.056 0.263 0.146 0.353v0z"></path>
</symbol>
<symbol id="caret-double-up-thin-svgrepo-com" viewBox="0 0 32 32">
<path d="M26.354 25.646c0.091 0.091 0.147 0.216 0.147 0.354 0 0.276-0.224 0.5-0.5 0.5-0.138 0-0.264-0.056-0.354-0.147v0l-9.646-9.646-9.646 9.646c-0.090 0.090-0.215 0.146-0.353 0.146-0.276 0-0.5-0.224-0.5-0.5 0-0.138 0.056-0.263 0.146-0.353v0l10-10c0.090-0.091 0.216-0.146 0.354-0.146s0.263 0.056 0.354 0.146v0zM6.354 16.354l9.646-9.646 9.646 9.646c0.090 0.090 0.215 0.146 0.353 0.146 0.276 0 0.5-0.224 0.5-0.5 0-0.138-0.056-0.263-0.146-0.353v0l-10-10c-0.090-0.090-0.215-0.146-0.354-0.146s-0.263 0.056-0.354 0.146l-10 10c-0.090 0.090-0.146 0.215-0.146 0.353 0 0.276 0.224 0.5 0.5 0.5 0.138 0 0.263-0.056 0.353-0.146v0z"></path>
</symbol>
<symbol id="chat-centered-thin-svgrepo-com" viewBox="0 0 32 32">
<path d="M16 28.556c-0.002 0-0.004 0-0.007 0-0.541 0-1.015-0.289-1.276-0.722l-0.004-0.007-1.851-3.085c-0.089-0.146-0.248-0.242-0.429-0.243h-7.434c-0.828-0.001-1.499-0.672-1.5-1.5v-16c0.001-0.828 0.672-1.499 1.5-1.5h22c0.828 0.001 1.499 0.672 1.5 1.5v16c-0.001 0.828-0.672 1.499-1.5 1.5h-7.434c-0.181 0.001-0.339 0.097-0.428 0.24l-0.001 0.002-1.851 3.085c-0.264 0.439-0.738 0.728-1.279 0.728-0.002 0-0.005 0-0.007-0h0zM5 6.5c-0.276 0-0.5 0.224-0.5 0.5v16c0 0.276 0.224 0.5 0.5 0.5h7.434c0.543 0.002 1.018 0.29 1.283 0.722l0.004 0.007 1.851 3.085c0.089 0.146 0.248 0.243 0.429 0.243s0.34-0.096 0.428-0.24l0.001-0.002 1.851-3.085c0.268-0.438 0.743-0.727 1.286-0.728h7.434c0.276-0 0.5-0.224 0.5-0.5v-16c-0-0.276-0.224-0.5-0.5-0.5h-0z"></path>
</symbol>
<symbol id="clock-thin-svgrepo-com" viewBox="0 0 32 32">
<path d="M16 3.5c-6.904 0-12.5 5.596-12.5 12.5s5.596 12.5 12.5 12.5c6.904 0 12.5-5.596 12.5-12.5v0c-0.008-6.9-5.6-12.492-12.499-12.5h-0.001zM16 27.5c-6.351 0-11.5-5.149-11.5-11.5s5.149-11.5 11.5-11.5c6.351 0 11.5 5.149 11.5 11.5v0c-0.007 6.348-5.152 11.493-11.499 11.5h-0.001zM23.5 16c0 0.276-0.224 0.5-0.5 0.5h-7c-0.276 0-0.5-0.224-0.5-0.5v0-7c0-0.276 0.224-0.5 0.5-0.5s0.5 0.224 0.5 0.5v0 6.5h6.5c0.276 0 0.5 0.224 0.5 0.5v0z"></path>
</symbol>
<symbol id="eye-thin-svgrepo-com" viewBox="0 0 32 32">
<path d="M30.457 15.797c-0.042-0.095-1.064-2.361-3.353-4.651-2.12-2.12-5.767-4.647-11.104-4.647s-8.984 2.527-11.104 4.647c-2.289 2.29-3.311 4.556-3.353 4.651-0.027 0.060-0.043 0.13-0.043 0.203s0.016 0.143 0.044 0.206l-0.001-0.003c0.042 0.095 1.064 2.361 3.353 4.65 2.12 2.119 5.767 4.646 11.104 4.646s8.984-2.526 11.104-4.646c2.289-2.289 3.311-4.555 3.353-4.65 0.027-0.060 0.043-0.13 0.043-0.203s-0.016-0.143-0.044-0.206l0.001 0.003zM26.37 20.172c-2.884 2.871-6.373 4.327-10.37 4.327s-7.486-1.456-10.37-4.327c-1.203-1.196-2.227-2.57-3.030-4.080l-0.044-0.092c0.847-1.602 1.871-2.977 3.073-4.172l0.001-0.001c2.884-2.872 6.373-4.328 10.37-4.328s7.486 1.456 10.37 4.328c1.203 1.196 2.227 2.571 3.030 4.081l0.044 0.092c-0.847 1.602-1.871 2.976-3.073 4.171l-0.001 0.001zM16 10.5c-3.038 0-5.5 2.462-5.5 5.5s2.462 5.5 5.5 5.5c3.038 0 5.5-2.462 5.5-5.5v0c-0.004-3.036-2.464-5.496-5.5-5.5h-0zM16 20.5c-2.485 0-4.5-2.015-4.5-4.5s2.015-4.5 4.5-4.5c2.485 0 4.5 2.015 4.5 4.5v0c-0.003 2.484-2.016 4.497-4.5 4.5h-0z"></path>
</symbol>
<symbol id="handshake-thin-svgrepo-com" viewBox="0 0 32 32">
<path d="M30.972 13.634l-3.074-5.887c-0.258-0.481-0.758-0.803-1.333-0.803-0.243 0-0.473 0.058-0.677 0.16l0.009-0.004-3.016 1.508h-2.274l-4.223-1.911c-0.182-0.084-0.394-0.133-0.618-0.133-0.15 0-0.294 0.022-0.43 0.063l0.011-0.003-6.272 1.829-2.972-1.486c-0.195-0.098-0.425-0.156-0.668-0.156-0.575 0-1.075 0.322-1.329 0.795l-0.004 0.008-3.074 5.887c-0.107 0.201-0.17 0.44-0.17 0.694 0 0.584 0.334 1.090 0.821 1.338l0.009 0.004 3.045 1.522 6.793 5.312c0.158 0.125 0.345 0.219 0.55 0.271l0.010 0.002 7.245 1.811c0.108 0.028 0.232 0.044 0.36 0.044 0 0 0 0 0 0h-0c0 0 0 0 0.001 0 0.415 0 0.791-0.168 1.064-0.439l4.6-4.6c0.009-0.009 0.018-0.019 0.027-0.029l1.934-2.263 2.999-1.499c0.496-0.252 0.829-0.758 0.829-1.342 0-0.254-0.063-0.493-0.174-0.702l0.004 0.008zM24.92 18.431l-5.126-3.728c-0.081-0.060-0.184-0.096-0.294-0.096-0.113 0-0.217 0.038-0.301 0.101l0.001-0.001-1.6 1.2c-0.579 0.434-1.309 0.696-2.1 0.696s-1.521-0.261-2.109-0.702l0.009 0.007-0.678-0.508c-0.122-0.092-0.2-0.237-0.2-0.4 0-0.138 0.056-0.263 0.146-0.354l4.892-4.892c0.091-0.090 0.216-0.146 0.353-0.146h4.783l3.703 7.092zM1.882 14.349c-0.016-0.046-0.025-0.099-0.025-0.154 0-0.085 0.021-0.164 0.058-0.234l-0.001 0.003 3.074-5.887c0.086-0.161 0.253-0.268 0.444-0.268 0 0 0.001 0 0.001 0h-0c0 0 0 0 0 0 0.081 0 0.157 0.019 0.224 0.054l-0.003-0.001 2.666 1.333-3.537 6.774-2.65-1.325c-0.12-0.060-0.21-0.164-0.251-0.29l-0.001-0.004zM20.047 23.354c-0.091 0.090-0.216 0.146-0.354 0.146-0.043 0-0.085-0.005-0.124-0.015l0.003 0.001-7.245-1.811c-0.072-0.018-0.134-0.050-0.188-0.092l0.001 0.001-6.505-5.086 3.696-7.078 6.295-1.835c0.042-0.013 0.090-0.020 0.14-0.020 0.075 0 0.146 0.016 0.209 0.046l-0.003-0.001 2.209 1h-0.268c-0.001 0-0.003 0-0.004 0-0.413 0-0.787 0.168-1.056 0.439l-4.892 4.892c-0.271 0.271-0.439 0.646-0.439 1.061 0 0.489 0.234 0.923 0.596 1.197l0.004 0.003 0.678 0.508c0.744 0.558 1.683 0.894 2.7 0.894s1.956-0.336 2.712-0.903l-0.012 0.008 1.304-0.978 4.728 3.439zM30.118 14.483c-0.042 0.129-0.133 0.233-0.249 0.292l-0.003 0.001-2.65 1.325-3.537-6.774 2.666-1.333c0.065-0.033 0.142-0.052 0.223-0.052 0.192 0 0.358 0.107 0.443 0.265l0.001 0.003 3.074 5.887c0.036 0.067 0.057 0.147 0.057 0.231 0 0.055-0.009 0.108-0.026 0.158l0.001-0.004zM14.485 26.729c-0.056 0.219-0.252 0.379-0.485 0.379-0.043 0-0.085-0.005-0.125-0.016l0.003 0.001-3.767-0.942c-0.24-0.062-0.449-0.174-0.622-0.325l0.002 0.002-2.819-2.45c-0.106-0.092-0.173-0.227-0.173-0.378 0-0.276 0.224-0.5 0.5-0.5 0.126 0 0.242 0.047 0.33 0.124l-0.001-0 2.819 2.45c0.057 0.050 0.127 0.087 0.204 0.107l0.004 0.001 3.767 0.942c0.219 0.056 0.379 0.252 0.379 0.485 0 0.043-0.005 0.085-0.016 0.125l0.001-0.003z"></path>
</symbol>
<symbol id="search-2" viewBox="0 0 32 32">
<path d="M28.353 27.646l-5.733-5.733c1.786-1.951 2.88-4.561 2.88-7.426 0-6.082-4.931-11.013-11.013-11.013s-11.013 4.931-11.013 11.013c0 6.082 4.931 11.013 11.013 11.013 2.865 0 5.475-1.094 7.433-2.887l-0.008 0.008 5.733 5.733c0.090 0.090 0.215 0.146 0.353 0.146 0.276 0 0.5-0.224 0.5-0.5 0-0.138-0.056-0.263-0.146-0.353v0zM4.5 14.5c0-5.523 4.477-10 10-10s10 4.477 10 10c0 5.523-4.477 10-10 10v0c-5.52-0.006-9.994-4.48-10-9.999v-0.001z"></path>
</symbol>
<symbol id="map-pin-thin-svgrepo-com" viewBox="0 0 32 32">
<path d="M16 8.5c-2.485 0-4.5 2.015-4.5 4.5s2.015 4.5 4.5 4.5c2.485 0 4.5-2.015 4.5-4.5v0c-0.003-2.484-2.016-4.497-4.5-4.5h-0zM16 16.5c-1.933 0-3.5-1.567-3.5-3.5s1.567-3.5 3.5-3.5c1.933 0 3.5 1.567 3.5 3.5v0c-0.002 1.932-1.568 3.498-3.5 3.5h-0zM16 2.5c-5.796 0.007-10.493 4.704-10.5 10.499v0.001c0 3.802 1.771 7.849 5.123 11.703 1.518 1.748 3.187 3.294 5.007 4.647l0.084 0.059c0.080 0.057 0.179 0.090 0.287 0.090s0.207-0.034 0.288-0.091l-0.002 0.001c1.904-1.413 3.572-2.959 5.058-4.668l0.032-0.038c3.351-3.854 5.123-7.901 5.123-11.703-0.007-5.796-4.704-10.493-10.499-10.5h-0.001zM20.638 24.029c-1.399 1.599-2.917 3.026-4.564 4.295l-0.074 0.055c-1.72-1.324-3.239-2.751-4.606-4.313l-0.032-0.037c-2.218-2.555-4.862-6.542-4.862-11.029 0-5.247 4.253-9.5 9.5-9.5s9.5 4.253 9.5 9.5v0c0 4.487-2.644 8.474-4.862 11.029z"></path>
</symbol>
<symbol id="paper-plane-tilt-thin-svgrepo-com" viewBox="0 0 32 32">
<path d="M27.613 4.387c-0.269-0.273-0.642-0.442-1.055-0.442-0.147 0-0.289 0.021-0.423 0.061l0.010-0.003-23.291 6.569c-0.636 0.184-1.093 0.76-1.093 1.444 0 0.595 0.347 1.109 0.849 1.352l0.009 0.004 10.701 5.069c0.105 0.051 0.187 0.133 0.236 0.235l0.001 0.003 5.069 10.701c0.242 0.511 0.754 0.858 1.347 0.858 0.002 0 0.003 0 0.005 0h-0q0.064 0 0.13-0.006c0.632-0.051 1.149-0.49 1.316-1.077l0.003-0.011 6.569-23.291c0.037-0.124 0.059-0.266 0.059-0.412 0-0.413-0.169-0.786-0.441-1.055l-0-0zM27.034 5.583l-6.569 23.291c-0.061 0.212-0.253 0.364-0.481 0.364-0.198 0-0.37-0.116-0.451-0.283l-0.001-0.003-5.071-10.706 5.408-5.408c0.090-0.090 0.146-0.215 0.146-0.354 0-0.276-0.224-0.5-0.5-0.5-0.138 0-0.263 0.056-0.354 0.146l-5.408 5.408c-0.001-0.001-0.003-0.002-0.004-0.002l-10.701-5.069c-0.17-0.082-0.286-0.254-0.286-0.452 0-0.228 0.152-0.42 0.361-0.48l0.004-0.001 23.291-6.569c0.042-0.013 0.091-0.020 0.142-0.020h0c0.136 0.002 0.259 0.058 0.348 0.148l0 0c0.091 0.089 0.148 0.213 0.148 0.351 0 0.049-0.007 0.097-0.021 0.142l0.001-0.003z"></path>
</symbol>
<symbol id="phone-thin-svgrepo-com" viewBox="0 0 32 32">
<path d="M22 27.5c-9.65 0-17.5-7.85-17.5-17.5 0.003-3.299 2.461-6.023 5.644-6.445l0.033-0.004c0.054-0.007 0.116-0.011 0.179-0.011 0.615 0 1.144 0.37 1.376 0.9l0.004 0.010 2.511 5.86c0.077 0.174 0.122 0.377 0.122 0.591 0 0.306-0.092 0.59-0.249 0.827l0.003-0.006-2.079 3.177c-0.052 0.077-0.083 0.172-0.083 0.274 0 0.076 0.017 0.148 0.048 0.212l-0.001-0.003h0c1.009 2.027 2.617 3.629 4.591 4.602l0.059 0.026c0.061 0.029 0.132 0.046 0.207 0.046 0.103 0 0.199-0.032 0.279-0.086l-0.002 0.001 3.129-2.087c0.234-0.158 0.522-0.253 0.832-0.253 0.214 0 0.417 0.045 0.601 0.126l-0.010-0.004 5.855 2.509c0.539 0.236 0.91 0.765 0.91 1.38 0 0.063-0.004 0.125-0.011 0.186l0.001-0.007c-0.426 3.217-3.15 5.674-6.448 5.678h-0zM10.362 4.54c-0 0-0 0-0 0-0.021 0-0.041 0.001-0.062 0.004l0.002-0c-2.722 0.36-4.801 2.665-4.803 5.456v0c0 9.098 7.402 16.5 16.5 16.5 2.791-0.002 5.096-2.081 5.453-4.775l0.003-0.028c0.002-0.017 0.003-0.037 0.003-0.056 0-0.205-0.124-0.381-0.301-0.457l-0.003-0.001-5.854-2.509c-0.058-0.026-0.126-0.041-0.197-0.041-0.103 0-0.199 0.031-0.279 0.085l0.002-0.001-3.129 2.087c-0.234 0.158-0.522 0.253-0.832 0.253-0.233 0-0.454-0.053-0.65-0.148l0.009 0.004c-2.235-1.1-4.004-2.861-5.085-5.026l-0.029-0.064 0 0c-0.093-0.189-0.148-0.412-0.148-0.648 0-0.306 0.092-0.59 0.249-0.827l-0.003 0.005 2.079-3.177c0.051-0.077 0.082-0.172 0.082-0.274 0-0.071-0.015-0.139-0.042-0.2l0.001 0.003-2.511-5.859c-0.077-0.179-0.252-0.303-0.455-0.305h-0z"></path>
</symbol>
<symbol id="plus-thin-svgrepo-com" viewBox="0 0 32 32">
<path d="M27.5 16c0 0.276-0.224 0.5-0.5 0.5h-10.5v10.5c0 0.276-0.224 0.5-0.5 0.5s-0.5-0.224-0.5-0.5v0-10.5h-10.5c-0.276 0-0.5-0.224-0.5-0.5s0.224-0.5 0.5-0.5v0h10.5v-10.5c0-0.276 0.224-0.5 0.5-0.5s0.5 0.224 0.5 0.5v0 10.5h10.5c0.276 0 0.5 0.224 0.5 0.5v0z"></path>
</symbol>
<symbol id="shield-check-thin-svgrepo-com" viewBox="0 0 32 32">
<path d="M26 5.5h-20c-0.828 0.001-1.499 0.672-1.5 1.5v7.333c0 10.838 9.193 14.435 11.036 15.046 0.138 0.049 0.298 0.077 0.464 0.077s0.326-0.028 0.474-0.080l-0.010 0.003c1.843-0.611 11.036-4.208 11.036-15.046v-7.333c-0.001-0.828-0.672-1.499-1.5-1.5h-0zM26.5 14.333c0 10.151-8.622 13.524-10.35 14.097-0.045 0.017-0.096 0.026-0.15 0.026s-0.105-0.010-0.153-0.027l0.003 0.001c-1.728-0.573-10.35-3.946-10.35-14.097v-7.333c0-0.276 0.224-0.5 0.5-0.5h20c0.276 0 0.5 0.224 0.5 0.5v0zM21.862 12.655c0.086 0.090 0.138 0.211 0.138 0.345 0 0.142-0.059 0.27-0.155 0.361l-0 0-7.333 7c-0.090 0.086-0.211 0.138-0.345 0.138s-0.256-0.053-0.345-0.139l0 0-3.667-3.5c-0.095-0.091-0.153-0.219-0.153-0.36 0-0.276 0.224-0.5 0.5-0.5 0.133 0 0.254 0.052 0.344 0.137l-0-0 3.321 3.17 6.988-6.67c0.090-0.086 0.211-0.138 0.345-0.138 0.142 0 0.27 0.059 0.361 0.155l0 0z"></path>
</symbol>
<symbol id="shield-checkered-thin-svgrepo-com" viewBox="0 0 32 32">
<path d="M25.999 5.499h-20c-0.828 0.001-1.499 0.672-1.5 1.5v7.333c0 10.839 9.193 14.435 11.036 15.046 0.138 0.048 0.297 0.076 0.463 0.077h0l0.002 0 0.003-0c0.165-0.001 0.324-0.029 0.472-0.080l-0.010 0.003c1.843-0.611 11.036-4.207 11.036-15.046v-7.333c-0.001-0.828-0.672-1.499-1.5-1.5h-0zM26.499 6.999v7.333c0 0.4-0.015 0.788-0.041 1.167h-9.959v-9.001h9.499c0.276 0 0.5 0.224 0.5 0.5v0zM5.499 6.999c0-0.276 0.224-0.5 0.5-0.5h9.501v9.001h-9.96c-0.026-0.379-0.041-0.767-0.041-1.167zM5.639 16.5h9.861v11.807c-2.127-0.779-8.814-3.842-9.861-11.807zM16.5 28.307v-11.807h9.86c-1.047 7.963-7.732 11.027-9.86 11.807z"></path>
</symbol>
<symbol id="shield-thin-svgrepo-com" viewBox="0 0 32 32">
<path d="M16 29.456c-0.166-0-0.326-0.028-0.475-0.080l0.010 0.003c-1.843-0.611-11.036-4.208-11.036-15.046v-7.333c0.001-0.828 0.672-1.499 1.5-1.5h20c0.828 0.001 1.499 0.672 1.5 1.5v7.333c0 10.838-9.193 14.435-11.036 15.046-0.138 0.048-0.298 0.076-0.464 0.077h-0zM6 6.5c-0.276 0-0.5 0.224-0.5 0.5v7.333c0 10.151 8.622 13.524 10.35 14.097 0.045 0.017 0.096 0.026 0.15 0.026s0.105-0.010 0.153-0.027l-0.003 0.001c1.728-0.573 10.35-3.946 10.35-14.097v-7.333c-0-0.276-0.224-0.5-0.5-0.5h-0z"></path>
</symbol>
<symbol id="suitcase-simple-thin-svgrepo-com" viewBox="0 0 32 32">
<path d="M27.001 8.5h-5.501v-1.5c-0.002-1.38-1.12-2.498-2.5-2.5h-6c-1.38 0.002-2.498 1.12-2.5 2.5v1.5h-5.499c-0.828 0.001-1.499 0.672-1.5 1.5v9.99c-0 0.003-0.001 0.006-0.001 0.010s0.001 0.006 0.001 0.010v5.99c0.001 0.828 0.672 1.499 1.5 1.5h22c0.828-0.001 1.499-0.672 1.5-1.5v-16c-0.001-0.828-0.672-1.499-1.5-1.5h-0zM11.5 7c0.001-0.828 0.672-1.499 1.5-1.5h6c0.828 0.001 1.499 0.672 1.5 1.5v1.5h-9zM5.001 9.5h22c0.276 0 0.5 0.224 0.5 0.5v9.5h-23v-9.5c0-0.276 0.224-0.5 0.5-0.5h0zM27.001 26.5h-22c-0.276-0-0.5-0.224-0.5-0.5v-5.5h23v5.5c-0 0.276-0.224 0.5-0.5 0.5h-0z"></path>
</symbol>
<symbol id="telegram-logo-thin-svgrepo-com" viewBox="0 0 32 32">
<path d="M28.581 4.346c-0.261-0.226-0.603-0.364-0.978-0.364-0.198 0-0.387 0.038-0.559 0.108l0.010-0.004-23.070 9.063c-0.562 0.225-0.951 0.765-0.951 1.396 0 0.724 0.513 1.329 1.196 1.469l0.010 0.002 6.262 1.252v7.729c-0 0.005-0 0.010-0 0.016 0 0.617 0.379 1.146 0.916 1.367l0.010 0.004c0.172 0.074 0.373 0.117 0.583 0.118h0c0.412-0.001 0.784-0.171 1.051-0.443l3.575-3.575 5.274 4.641c0.261 0.233 0.607 0.375 0.986 0.375h0c0.166-0 0.326-0.027 0.476-0.077l-0.011 0.003c0.503-0.163 0.882-0.573 1-1.082l0.002-0.010 4.702-20.517c0.024-0.101 0.038-0.217 0.038-0.336 0-0.453-0.201-0.859-0.52-1.134l-0.002-0.002zM4.034 14.59c-0.002-0.017-0.003-0.036-0.003-0.055 0-0.208 0.131-0.385 0.315-0.453l0.003-0.001 21.147-8.308-14.613 10.553-6.45-1.29c-0.219-0.039-0.386-0.221-0.4-0.445l-0-0.001zM12.354 25.352c-0.090 0.090-0.215 0.146-0.354 0.146-0.276 0-0.5-0.224-0.5-0.5v0-7.033l4.383 3.857zM28.089 5.594l-4.702 20.517c-0.053 0.224-0.251 0.388-0.487 0.388-0.127 0-0.243-0.047-0.331-0.125l0.001 0-10.769-9.477 16.208-11.706c0.059 0.079 0.095 0.178 0.095 0.286 0 0.041-0.005 0.082-0.015 0.12l0.001-0.003z"></path>
</symbol>
<symbol id="train-simple-thin-svgrepo-com" viewBox="0 0 32 32">
<path d="M23.5 3.5h-15c-1.932 0.002-3.498 1.568-3.5 3.5v16c0.002 1.932 1.568 3.498 3.5 3.5h2.5l-2.4 3.2c-0.062 0.083-0.1 0.187-0.1 0.3 0 0.276 0.224 0.5 0.5 0.5 0.163 0 0.308-0.078 0.399-0.199l0.001-0.001 2.85-3.8h7.5l2.85 3.8c0.092 0.122 0.237 0.2 0.4 0.2 0.276 0 0.5-0.224 0.5-0.5 0-0.113-0.038-0.218-0.101-0.301l0.001 0.001-2.4-3.2h2.5c1.932-0.002 3.498-1.568 3.5-3.5v-16c-0.002-1.932-1.568-3.498-3.5-3.5h-0zM8.5 4.5h15c1.38 0.002 2.498 1.12 2.5 2.5v8.5h-20v-8.5c0.002-1.38 1.12-2.498 2.5-2.5h0zM23.5 25.5h-15c-1.38-0.002-2.498-1.12-2.5-2.5v-6.5h20v6.5c-0.002 1.38-1.12 2.498-2.5 2.5h-0zM11.5 21.5c0 0.552-0.448 1-1 1s-1-0.448-1-1c0-0.552 0.448-1 1-1v0c0.552 0.001 0.999 0.448 1 1v0zM22.5 21.5c0 0.552-0.448 1-1 1s-1-0.448-1-1c0-0.552 0.448-1 1-1v0c0.552 0.001 0.999 0.448 1 1v0z"></path>
</symbol>
<symbol id="user-thin-svgrepo-com" viewBox="0 0 32 32">
<path d="M28.559 26.749c-2.023-3.44-5.328-5.941-9.243-6.863l-0.099-0.020c3.125-1.303 5.282-4.333 5.282-7.867 0-4.694-3.806-8.5-8.5-8.5s-8.5 3.806-8.5 8.5c0 3.534 2.157 6.565 5.226 7.847l0.056 0.021c-4.013 0.942-7.318 3.443-9.304 6.815l-0.037 0.068c-0.042 0.072-0.067 0.158-0.067 0.251 0 0.276 0.224 0.5 0.5 0.5 0.184 0 0.345-0.099 0.432-0.248l0.001-0.002c2.379-4.063 6.723-6.749 11.694-6.749s9.315 2.686 11.659 6.686l0.035 0.064c0.088 0.15 0.249 0.249 0.433 0.249 0.276 0 0.5-0.224 0.5-0.5 0-0.092-0.025-0.178-0.068-0.252l0.001 0.002zM8.5 12c0-4.142 3.358-7.5 7.5-7.5s7.5 3.358 7.5 7.5c0 4.142-3.358 7.5-7.5 7.5v0c-4.14-0.005-7.495-3.36-7.5-7.5v-0z"></path>
</symbol>
<symbol id="users-thin-svgrepo-com" viewBox="0 0 32 32">
<path d="M13.892 19.872c2.443-1.128 4.108-3.557 4.108-6.375 0-3.866-3.134-7-7-7s-7 3.134-7 7c0 2.818 1.665 5.247 4.065 6.357l0.043 0.018c-2.705 0.72-4.96 2.325-6.493 4.479l-0.024 0.035c-0.057 0.080-0.092 0.18-0.092 0.288 0 0.276 0.224 0.5 0.5 0.5 0.169 0 0.318-0.083 0.408-0.211l0.001-0.002c1.925-2.713 5.054-4.462 8.592-4.462s6.666 1.749 8.569 4.429l0.022 0.032c0.092 0.128 0.24 0.211 0.408 0.211 0.276 0 0.5-0.224 0.5-0.5 0-0.107-0.034-0.207-0.092-0.288l0.001 0.002c-1.557-2.189-3.812-3.794-6.436-4.496l-0.081-0.018zM5 13.5c0-3.314 2.686-6 6-6s6 2.686 6 6c0 3.314-2.686 6-6 6v0c-3.312-0.004-5.996-2.688-6-6v-0zM30.478 25.083c-0.080 0.057-0.18 0.091-0.288 0.091-0.168 0-0.317-0.083-0.408-0.211l-0.001-0.002c-1.927-2.71-5.055-4.458-8.591-4.462h-0.001c-0.276 0-0.5-0.224-0.5-0.5s0.224-0.5 0.5-0.5v0c3.311-0.003 5.994-2.688 5.994-6 0-3.314-2.686-6-6-6-0.578 0-1.136 0.082-1.665 0.234l0.042-0.010c-0.041 0.012-0.088 0.019-0.137 0.019-0.276 0-0.5-0.224-0.5-0.5 0-0.228 0.153-0.421 0.362-0.481l0.004-0.001c0.569-0.167 1.223-0.263 1.899-0.263 3.866 0 7 3.134 7 7 0 2.818-1.665 5.247-4.065 6.356l-0.043 0.018c2.705 0.72 4.96 2.325 6.493 4.479l0.024 0.035c0.057 0.080 0.091 0.18 0.091 0.288 0 0.168-0.083 0.317-0.211 0.408l-0.002 0.001z"></path>
</symbol>
<symbol id="alarm-clock-svgrepo-com" viewBox="0 0 32 32">
<path d="M27.973 3.413c-0.928-0.917-2.204-1.484-3.612-1.484-1.1 0-2.12 0.346-2.956 0.935l0.016-0.011c3.193 1.353 5.731 3.733 7.251 6.719l0.038 0.081c0.467-0.755 0.743-1.67 0.743-2.649 0-1.401-0.566-2.67-1.481-3.591l0 0z"></path>
<path d="M10.151 3.049c-0.867-0.693-1.979-1.113-3.19-1.113-1.404 0-2.676 0.564-3.602 1.478l0.001-0.001c-0.913 0.919-1.477 2.185-1.477 3.583 0 1.22 0.43 2.34 1.147 3.217l-0.007-0.009c1.456-3.186 3.95-5.688 7.040-7.119l0.088-0.037z"></path>
<path d="M14.578 3.636c-6.223 0.748-11.001 5.996-11.001 12.36 0 3.43 1.388 6.536 3.632 8.787l-0-0-2.267 2.267c-0.158 0.161-0.256 0.383-0.256 0.627 0 0.495 0.401 0.896 0.896 0.896 0.251 0 0.477-0.103 0.64-0.269l2.365-2.365c2.047 1.562 4.642 2.503 7.456 2.503 2.855 0 5.484-0.969 7.577-2.595l-0.028 0.021 2.436 2.436c0.154 0.133 0.357 0.214 0.578 0.214 0.491 0 0.889-0.398 0.889-0.889 0-0.221-0.081-0.424-0.215-0.579l0.001 0.001-2.391-2.356c2.189-2.241 3.54-5.309 3.54-8.693 0-6.873-5.572-12.444-12.444-12.444-0.496 0-0.984 0.029-1.465 0.085l0.058-0.006zM17.404 26.578c-0.416 0.058-0.897 0.090-1.385 0.090-5.891 0-10.667-4.776-10.667-10.667s4.776-10.667 10.667-10.667c5.891 0 10.667 4.776 10.667 10.667 0 0.488-0.033 0.969-0.096 1.44l0.006-0.055c-0.646 4.794-4.397 8.545-9.136 9.185l-0.055 0.006z"></path>
<path d="M22.151 18.080l-5.387-2.667v-6.969c0-0.442-0.358-0.8-0.8-0.8s-0.8 0.358-0.8 0.8v0 8l6.276 3.111c0.103 0.051 0.223 0.081 0.351 0.081 0.442 0 0.801-0.359 0.801-0.801 0-0.315-0.181-0.587-0.445-0.718l-0.005-0.002z"></path>
</symbol>
<symbol id="briefcase-svgrepo-com" viewBox="0 0 32 32">
<path d="M28.444 24.889h-24.889v-5.938c-0.688-0.334-1.275-0.759-1.777-1.27l-0.001-0.001v7.209c0 0.982 0.796 1.778 1.778 1.778v0h24.889c0.982 0 1.778-0.796 1.778-1.778v0-7.209c-0.499 0.514-1.088 0.938-1.741 1.247l-0.036 0.015z"></path>
<path d="M22.222 19.911c0.491 0 0.889-0.398 0.889-0.889v0-4.853h-1.778v1.831h-8.889v1.778h8.889v1.244c0 0.491 0.398 0.889 0.889 0.889v0z"></path>
<path d="M29.333 5.333h-8v-1.44c-0.020-1.173-0.975-2.116-2.151-2.116-0.009 0-0.019 0-0.028 0h-6.31c-0.008-0-0.017-0-0.027-0-1.176 0-2.131 0.943-2.151 2.114l-0 0.002v1.44h-8c-0.491 0-0.889 0.398-0.889 0.889v0 7.111c0 2.455 1.99 4.444 4.444 4.444v0h2.667v1.244c0 0.491 0.398 0.889 0.889 0.889s0.889-0.398 0.889-0.889v0-4.853h-1.778v1.831h-2.667c-1.473 0-2.667-1.194-2.667-2.667v0-6.222h24.889v6.222c0 1.473-1.194 2.667-2.667 2.667v0h-0.889v1.778h0.889c2.455 0 4.444-1.99 4.444-4.444v0-7.111c0-0.491-0.398-0.889-0.889-0.889v0zM19.556 5.333h-7.111v-1.396c0.010-0.213 0.185-0.382 0.4-0.382 0 0 0 0 0 0h6.32c0.003-0 0.006-0 0.009-0 0.208 0 0.377 0.166 0.382 0.373v0z"></path>
</symbol>
<symbol id="calendar-1-svgrepo-com" viewBox="0 0 32 32">
<path d="M28.667 5.333h-2.889v1.778h2.667v19.556h-24.889v-19.556h2.667v-1.778h-2.889c-0.862 0.015-1.556 0.717-1.556 1.582 0 0.009 0 0.019 0 0.028l-0-0.001v19.893c-0 0.008-0 0.017-0 0.027 0 0.865 0.693 1.567 1.554 1.582l0.001 0h25.333c0.862-0.015 1.556-0.717 1.556-1.582 0-0.009-0-0.019-0-0.028l0 0.001v-19.893c0-0.008 0-0.017 0-0.027 0-0.865-0.693-1.567-1.554-1.582l-0.001-0z"></path>
<path d="M7.111 12.444h1.778v1.778h-1.778v-1.778z"></path>
<path d="M12.444 12.444h1.778v1.778h-1.778v-1.778z"></path>
<path d="M17.778 12.444h1.778v1.778h-1.778v-1.778z"></path>
<path d="M23.111 12.444h1.778v1.778h-1.778v-1.778z"></path>
<path d="M7.111 16.889h1.778v1.778h-1.778v-1.778z"></path>
<path d="M12.444 16.889h1.778v1.778h-1.778v-1.778z"></path>
<path d="M17.778 16.889h1.778v1.778h-1.778v-1.778z"></path>
<path d="M23.111 16.889h1.778v1.778h-1.778v-1.778z"></path>
<path d="M7.111 21.333h1.778v1.778h-1.778v-1.778z"></path>
<path d="M12.444 21.333h1.778v1.778h-1.778v-1.778z"></path>
<path d="M17.778 21.333h1.778v1.778h-1.778v-1.778z"></path>
<path d="M23.111 21.333h1.778v1.778h-1.778v-1.778z"></path>
<path d="M8.889 8.889c0.491 0 0.889-0.398 0.889-0.889v0-5.333c0-0.491-0.398-0.889-0.889-0.889s-0.889 0.398-0.889 0.889v0 5.333c0 0.491 0.398 0.889 0.889 0.889v0z"></path>
<path d="M23.111 8.889c0.491 0 0.889-0.398 0.889-0.889v0-5.333c0-0.491-0.398-0.889-0.889-0.889s-0.889 0.398-0.889 0.889v0 5.333c0 0.491 0.398 0.889 0.889 0.889v0z"></path>
<path d="M11.556 5.333h8.889v1.778h-8.889v-1.778z"></path>
</symbol>
<symbol id="clock-svgrepo-com" viewBox="0 0 32 32">
<path d="M16 1.778c-7.855 0-14.222 6.367-14.222 14.222s6.367 14.222 14.222 14.222c7.855 0 14.222-6.367 14.222-14.222v0c0-7.855-6.367-14.222-14.222-14.222v0zM16 28.444c-6.873 0-12.444-5.572-12.444-12.444s5.572-12.444 12.444-12.444c6.873 0 12.444 5.572 12.444 12.444v0c0 6.873-5.572 12.444-12.444 12.444v0z"></path>
<path d="M16.818 16.356v-6.8c0-0.491-0.398-0.889-0.889-0.889s-0.889 0.398-0.889 0.889v0 7.751l5.244 3.556c0.147 0.111 0.333 0.178 0.534 0.178 0.491 0 0.889-0.398 0.889-0.889 0-0.324-0.173-0.608-0.433-0.763l-0.004-0.002z"></path>
<path d="M7.111 15.947c-0-0.013-0-0.029-0-0.045 0-4.88 3.956-8.836 8.836-8.836 1.81 0 3.493 0.544 4.895 1.479l-0.032-0.020 0.756-1.209c-1.585-1.052-3.532-1.679-5.626-1.679-5.67 0-10.267 4.597-10.267 10.267 0 4.978 3.543 9.128 8.245 10.068l0.066 0.011 0.24-1.36c-4.075-0.854-7.094-4.41-7.111-8.674v-0.002z"></path>
</symbol>
<symbol id="eye-1-svgrepo-com" viewBox="0 0 32 32">
<path d="M29.884 15.582c-2.996-5.538-8.249-8.889-14.062-8.889s-11.076 3.351-14.044 8.889l-0.249 0.418 0.231 0.427c2.996 5.538 8.249 8.889 14.062 8.889s11.076-3.307 14.062-8.889l0.231-0.427zM15.822 23.493c-5.004 0-9.6-2.791-12.267-7.493 2.667-4.702 7.262-7.493 12.267-7.493s9.547 2.8 12.258 7.493c-2.711 4.702-7.262 7.493-12.258 7.493z"></path>
<path d="M16.080 9.929c-3.349 0.025-6.053 2.746-6.053 6.098 0 3.368 2.73 6.098 6.098 6.098s6.098-2.73 6.098-6.098c0-0.009-0-0.019-0-0.028v0.001c-0.015-3.356-2.739-6.071-6.098-6.071-0.016 0-0.031 0-0.047 0h0.002zM16.080 20.347c-2.367-0.025-4.275-1.95-4.275-4.32 0-2.386 1.934-4.32 4.32-4.32 2.376 0 4.305 1.919 4.32 4.292v0.001c0 0.005 0 0.012 0 0.018 0 2.391-1.938 4.329-4.329 4.329-0.012 0-0.025-0-0.038-0h0.002z"></path>
</symbol>
<symbol id="phone-handset-svgrepo-com" viewBox="0 0 32 32">
<path d="M24.649 31.502c-0.315-0.001-0.622-0.036-0.917-0.103l0.028 0.005c-5.79-1.225-10.81-3.966-14.783-7.787l0.010 0.009c-3.892-3.83-6.709-8.743-7.963-14.249l-0.037-0.195c-0.055-0.251-0.086-0.539-0.086-0.835 0-1.17 0.494-2.225 1.284-2.968l0.002-0.002 3.556-3.422c0.318-0.301 0.748-0.486 1.222-0.486 0.052 0 0.103 0.002 0.154 0.007l-0.007-0c0.538 0.058 0.999 0.348 1.285 0.767l0.004 0.006 4.444 6.569c0.145 0.219 0.232 0.489 0.232 0.778 0 0.347-0.125 0.666-0.332 0.913l0.002-0.002-2.231 2.667c0.934 2.039 2.181 3.775 3.701 5.23l0.006 0.006c1.51 1.506 3.3 2.732 5.285 3.593l0.111 0.043 2.764-2.196c0.246-0.196 0.561-0.314 0.904-0.314 0.277 0 0.535 0.077 0.756 0.211l-0.006-0.004 6.711 4.338c0.523 0.316 0.866 0.881 0.866 1.526 0 0.482-0.191 0.918-0.502 1.238l0-0-3.467 3.431c-0.762 0.758-1.812 1.227-2.972 1.227-0.008 0-0.017-0-0.025-0h0.001zM6.969 3.236l-3.556 3.422c-0.443 0.413-0.719 1-0.719 1.652 0 0.171 0.019 0.337 0.055 0.497l-0.003-0.015c1.201 5.351 3.833 9.965 7.473 13.562l0.003 0.003c3.73 3.586 8.453 6.164 13.717 7.283l0.186 0.033c0.15 0.033 0.323 0.052 0.5 0.052 0.672 0 1.28-0.271 1.722-0.71l-0 0 3.467-3.431-6.48-4.187-2.969 2.364c-0.15 0.12-0.342 0.192-0.552 0.192-0.095 0-0.187-0.015-0.272-0.043l0.006 0.002c-2.561-0.96-4.745-2.398-6.54-4.22l-0.002-0.002c-1.864-1.744-3.337-3.882-4.288-6.283l-0.041-0.117c-0.020-0.070-0.031-0.15-0.031-0.232 0-0.237 0.093-0.453 0.245-0.612l-0 0 2.4-2.871z"></path>
</symbol>
<symbol id="search-3" viewBox="0 0 32 32">
<path d="M14.516 4.489c0.003 0 0.006 0 0.009 0 5.376 0 9.733 4.358 9.733 9.733s-4.358 9.733-9.733 9.733c-5.376 0-9.733-4.358-9.733-9.733v0c0.025-5.362 4.363-9.703 9.722-9.733h0.003zM14.516 2.667c-6.382 0-11.556 5.174-11.556 11.556s5.174 11.556 11.556 11.556c6.382 0 11.556-5.174 11.556-11.556v0c0-6.382-5.174-11.556-11.556-11.556v0z"></path>
<path d="M31.111 29.591l-6.551-6.596-1.262 1.253 6.551 6.596c0.161 0.162 0.384 0.263 0.631 0.263 0.491 0 0.889-0.398 0.889-0.889 0-0.244-0.099-0.466-0.258-0.627l0 0z"></path>
</symbol>
<symbol id="balance-svgrepo-com" viewBox="0 0 32 32">
<path d="M29.898 16h-0.454l-3.894-7.010c0.252-0.026 0.45-0.231 0.45-0.49 0-0.276-0.224-0.5-0.5-0.5h-9v-0.071c0.861-0.223 1.5-0.998 1.5-1.929 0-1.105-0.895-2-2-2s-2 0.895-2 2c0 0.931 0.639 1.706 1.5 1.929v0.071h-9c-0.276 0-0.5 0.224-0.5 0.5 0 0.259 0.198 0.464 0.45 0.49l-3.894 7.010h-0.454c-0.612 0-1.108 0.551-0.991 1.152 0.537 2.762 2.969 4.848 5.889 4.848s5.352-2.086 5.89-4.848c0.116-0.601-0.379-1.152-0.992-1.152h-0.454l-3.888-7h7.394l-0.9 18h-3.55c-0.276 0-0.5 0.224-0.5 0.5s0.224 0.5 0.5 0.5h11c0.276 0 0.5-0.224 0.5-0.5s-0.224-0.5-0.5-0.5h-3.55l-0.9-18h7.394l-3.889 7h-0.454c-0.612 0-1.108 0.551-0.991 1.152 0.538 2.762 2.97 4.848 5.89 4.848s5.352-2.086 5.89-4.848c0.116-0.601-0.379-1.152-0.992-1.152zM11.897 17c-0.471 2.32-2.522 4-4.897 4-2.389 0-4.453-1.699-4.898-4h9.795zM10.3 16h-6.6l3.3-5.941 3.3 5.941zM15 6c0-0.551 0.449-1 1-1s1 0.449 1 1-0.449 1-1 1-1-0.449-1-1zM15.051 27l0.9-18h0.098l0.9 18h-1.898zM25 10.059l3.3 5.941h-6.6l3.3-5.941zM25 21c-2.389 0-4.453-1.699-4.898-4h9.795c-0.471 2.32-2.522 4-4.897 4z"></path>
</symbol>
<symbol id="beat-svgrepo-com" viewBox="0 0 32 32">
<path d="M27 5h-22c-1.657 0-3 1.343-3 3v16c0 1.657 1.343 3 3 3h22c1.657 0 3-1.343 3-3v-16c0-1.657-1.343-3-3-3zM29 24c0 1.103-0.897 2-2 2h-22c-1.103 0-2-0.897-2-2v-16c0-1.103 0.897-2 2-2h22c1.103 0 2 0.897 2 2v16zM25 15.5c0 0.276-0.224 0.5-0.5 0.5h-2.5c-0.215 0-0.406-0.138-0.475-0.342l-0.525-1.577-1.525 4.577c-0.069 0.205-0.261 0.342-0.475 0.342-0.010 0-0.021 0-0.031-0.001-0.227-0.014-0.415-0.179-0.459-0.401l-1.428-7.138-0.587 4.11c-0.035 0.247-0.246 0.43-0.495 0.43h-3c-0.215 0-0.406-0.138-0.475-0.342l-0.525-1.577-1.525 4.577c-0.071 0.214-0.259 0.354-0.506 0.341-0.227-0.014-0.415-0.179-0.459-0.401l-1.428-7.138-0.587 4.11c-0.035 0.247-0.246 0.43-0.495 0.43h-2.5c-0.276 0-0.5-0.224-0.5-0.5s0.224-0.5 0.5-0.5h2.066l0.938-6.571c0.035-0.241 0.238-0.422 0.482-0.429 0.248-0.006 0.456 0.163 0.504 0.402l1.631 8.154 1.404-4.214c0.137-0.408 0.812-0.408 0.949 0l0.886 2.658h2.206l0.938-6.571c0.035-0.241 0.238-0.422 0.482-0.429 0.258-0.006 0.456 0.163 0.504 0.402l1.631 8.154 1.404-4.214c0.137-0.408 0.812-0.408 0.949 0l0.886 2.658h2.14c0.276 0 0.5 0.224 0.5 0.5zM24.5 22.5c0 0.276-0.224 0.5-0.5 0.5h-3.793l-0.854 0.854c-0.097 0.097-0.225 0.146-0.353 0.146s-0.256-0.049-0.354-0.146l-1.646-1.647-0.646 0.646c-0.094 0.094-0.221 0.147-0.354 0.147h-4.793l-0.854 0.854c-0.195 0.195-0.512 0.195-0.707 0l-1.646-1.647-0.646 0.646c-0.094 0.094-0.221 0.147-0.354 0.147h-2.5c-0.276 0-0.5-0.224-0.5-0.5s0.224-0.5 0.5-0.5h2.293l0.854-0.854c0.195-0.195 0.512-0.195 0.707 0l1.646 1.647 0.646-0.646c0.094-0.094 0.221-0.147 0.354-0.147h4.793l0.854-0.854c0.195-0.195 0.512-0.195 0.707 0l1.646 1.647 0.646-0.646c0.094-0.094 0.221-0.147 0.354-0.147h4c0.276 0 0.5 0.224 0.5 0.5zM28 15c0 0.552-0.448 1-1 1s-1-0.448-1-1c0-0.552 0.448-1 1-1s1 0.448 1 1zM28 22c0 0.552-0.448 1-1 1s-1-0.448-1-1c0-0.552 0.448-1 1-1s1 0.448 1 1z"></path>
</symbol>
<symbol id="documents-svgrepo-com" viewBox="0 0 32 32">
<path d="M8.235 10.824c0-0.368 0.298-0.667 0.667-0.667h9.469c0.368 0 0.667 0.298 0.667 0.667s-0.299 0.667-0.667 0.667h-9.469c-0.368 0-0.667-0.298-0.667-0.667zM8.901 13.728c-0.368 0-0.667 0.299-0.667 0.667s0.298 0.667 0.667 0.667h9.469c0.368 0 0.667-0.298 0.667-0.667s-0.299-0.667-0.667-0.667h-9.469zM8.235 17.965c0-0.368 0.298-0.667 0.667-0.667h9.469c0.368 0 0.667 0.299 0.667 0.667s-0.299 0.667-0.667 0.667h-9.469c-0.368 0-0.667-0.298-0.667-0.667zM8.901 20.857c-0.368 0-0.667 0.299-0.667 0.667s0.298 0.667 0.667 0.667h9.469c0.368 0 0.667-0.298 0.667-0.667s-0.299-0.667-0.667-0.667h-9.469z"></path>
<path d="M10.179 1.348h0.489c0.043-0.009 0.088-0.014 0.134-0.014s0.091 0.005 0.134 0.014h9.508c1.184 0 2.148 0.966 2.148 2.149v20.288c0 1.183-0.965 2.149-2.148 2.149h-13.63c-1.184 0-2.148-0.966-2.148-2.149v-17.138c0-0.029 0.002-0.057 0.005-0.085 0.015-0.346 0.151-0.694 0.437-0.98l3.821-3.824c0.359-0.351 0.82-0.472 1.249-0.411zM6.052 6.526l3.811-3.814c0.029-0.028 0.056-0.039 0.081-0.043 0.028-0.005 0.062-0.002 0.095 0.012s0.057 0.034 0.072 0.056c0.011 0.016 0.023 0.040 0.025 0.079v2.189c0 0.008 0 0.016 0 0.024v1.199c0 0.312-0.258 0.569-0.568 0.569h-3.407c-0.042 0-0.067-0.011-0.085-0.024-0.021-0.015-0.043-0.040-0.056-0.074s-0.017-0.066-0.012-0.092c0.004-0.023 0.014-0.050 0.045-0.080zM11.469 2.682v0.11c0 0.012 0 0.025 0 0.038v3.398c0 1.047-0.854 1.902-1.901 1.902l-3.568 0v15.656c0 0.448 0.369 0.816 0.815 0.816h13.63c0.446 0 0.815-0.368 0.815-0.816v-20.288c0-0.448-0.369-0.816-0.815-0.816h-8.975z"></path>
<path d="M24.296 4.016c-0.368 0-0.667 0.298-0.667 0.667s0.298 0.667 0.667 0.667h0.889c0.446 0 0.815 0.368 0.815 0.816v22.352c0 0.448-0.369 0.816-0.815 0.816h-13.63c-0.446 0-0.815-0.368-0.815-0.816v-0.877c0-0.368-0.298-0.667-0.667-0.667s-0.667 0.299-0.667 0.667v0.877c0 1.183 0.965 2.149 2.148 2.149h13.63c1.184 0 2.148-0.966 2.148-2.149v-22.352c0-1.183-0.965-2.149-2.148-2.149h-0.889z"></path>
</symbol>
<symbol id="corp-sales-svgrepo-com" viewBox="0 0 32 32">
<path d="M4.933 17.333h-2.4c-0.933 0-1.6 0.667-1.6 1.6v8.533c0 0.933 0.667 1.6 1.6 1.6h2.4c0.933 0 1.6-0.667 1.6-1.6v-8.533c0-0.8-0.667-1.6-1.6-1.6zM5.2 27.467c0 0.133-0.133 0.267-0.267 0.267h-2.4c-0.133 0-0.267-0.133-0.267-0.267v-8.533c0-0.133 0.133-0.267 0.267-0.267h2.4c0.133 0 0.267 0.133 0.267 0.267v8.533zM13.067 15.867h-2.4c-0.933 0-1.6 0.667-1.6 1.6v10.267c0 0.933 0.667 1.6 1.6 1.6h2.4c0.933 0 1.6-0.667 1.6-1.6v-10.4c0-0.8-0.667-1.467-1.6-1.467zM13.333 27.6c0 0.133-0.133 0.267-0.267 0.267h-2.4c-0.133 0-0.267-0.133-0.267-0.267v-10.267c0-0.133 0.133-0.267 0.267-0.267h2.4c0.133 0 0.267 0.133 0.267 0.267v10.267zM21.2 14.267h-2.4c-0.933 0-1.6 0.667-1.6 1.6v12c0 0.933 0.667 1.6 1.6 1.6h2.4c0.933 0 1.6-0.667 1.6-1.6v-12c0-0.933-0.8-1.6-1.6-1.6zM21.467 27.867c0 0.133-0.133 0.267-0.267 0.267h-2.4c-0.133 0-0.267-0.133-0.267-0.267v-12c0-0.133 0.133-0.267 0.267-0.267h2.4c0.133 0 0.267 0.133 0.267 0.267v12zM29.333 12.667h-2.4c-0.933 0-1.6 0.667-1.6 1.6v13.467c0 0.933 0.667 1.6 1.6 1.6h2.4c0.933 0 1.6-0.667 1.6-1.6v-13.467c0-0.8-0.8-1.6-1.6-1.6zM29.6 27.733c0 0.133-0.133 0.267-0.267 0.267h-2.4c-0.133 0-0.267-0.133-0.267-0.267v-13.467c0-0.133 0.133-0.267 0.267-0.267h2.4c0.133 0 0.267 0.133 0.267 0.267v13.467zM30.4 3.333s-0.133 0 0 0c-0.133 0-0.133 0 0 0h-3.2c-0.4 0-0.667 0.267-0.667 0.667s0.267 0.667 0.667 0.667h1.333c-8.4 4.667-17.6 7.333-27.2 7.867-0.4 0-0.667 0.4-0.667 0.667 0 0.4 0.267 0.667 0.667 0.667 10.133-0.533 19.6-3.333 28.4-8.267v1.333c0 0.4 0.267 0.667 0.667 0.667s0.667-0.267 0.667-0.667v-3.067c0-0.267-0.267-0.533-0.667-0.533z"></path>
</symbol>
<symbol id="corp-ads-svgrepo-com" viewBox="0 0 32 32">
<path d="M24.4 30.267h-16.267c-1.2 0-2.133-0.933-2.133-2.133v-24c0-1.2 0.933-2.133 2.133-2.133h16.267c1.2 0 2.133 0.933 2.133 2.133v24.133c-0.133 1.067-1.067 2-2.133 2zM8.133 3.333c-0.4 0-0.8 0.267-0.8 0.8v24.133c0 0.4 0.267 0.8 0.8 0.8h16.267c0.4 0 0.8-0.267 0.8-0.8v-24.133c0-0.4-0.267-0.8-0.8-0.8h-16.267z"></path>
<path d="M15.867 12.933h-6.4c-0.667 0-1.067-0.533-1.067-1.067v-6.4c0-0.667 0.533-1.067 1.067-1.067h6.4c0.667 0 1.067 0.533 1.067 1.067v6.4c0 0.667-0.4 1.067-1.067 1.067zM9.733 11.6h6v-5.867h-6v5.867zM23.333 10.133h-4.933c-0.4 0-0.667-0.267-0.667-0.667s0.267-0.667 0.667-0.667h5.067c0.4 0 0.667 0.267 0.667 0.667s-0.4 0.667-0.8 0.667zM23.333 12.4h-4.933c-0.4 0-0.667-0.267-0.667-0.667s0.267-0.667 0.667-0.667h5.067c0.4 0 0.667 0.267 0.667 0.667s-0.4 0.667-0.8 0.667zM23.6 15.067h-14.533c-0.4 0-0.667-0.267-0.667-0.667s0.267-0.667 0.667-0.667h14.533c0.4 0 0.667 0.267 0.667 0.667s-0.4 0.667-0.667 0.667zM23.6 17.333h-14.533c-0.4 0-0.667-0.267-0.667-0.667s0.267-0.667 0.667-0.667h14.533c0.4 0 0.667 0.267 0.667 0.667s-0.4 0.667-0.667 0.667zM23.6 19.467h-14.533c-0.4 0-0.667-0.267-0.667-0.667s0.267-0.667 0.667-0.667h14.533c0.4 0 0.667 0.267 0.667 0.667s-0.4 0.667-0.667 0.667zM23.067 28h-13.467c-0.667 0-1.2-0.533-1.2-1.2v-5.067c0-0.667 0.533-1.2 1.2-1.2h13.467c0.667 0 1.2 0.533 1.2 1.2v5.067c0 0.667-0.533 1.2-1.2 1.2zM9.733 26.667h13.2v-4.8h-13.2v4.8z"></path>
</symbol>
<symbol id="uinlocked-svgrepo-com" viewBox="0 0 32 32">
<path d="M27.52 30.080c0.53 0 0.96-0.43 0.96-0.96v-13.013c0-0.53-0.43-0.96-0.96-0.96h-22.72c-0.53 0-0.96 0.43-0.96 0.96v13.013c0 0.53 0.43 0.96 0.96 0.96h22.72zM27.52 31.36h-22.72c-1.237 0-2.24-1.003-2.24-2.24v-13.013c0-1.237 1.003-2.24 2.24-2.24h22.72c1.237 0 2.24 1.003 2.24 2.24v13.013c0 1.237-1.003 2.24-2.24 2.24z"></path>
<path d="M10.395 14.32v-6.32c0-3.167 2.593-5.76 5.76-5.76h0.24c3.167 0 5.76 2.593 5.76 5.76 0 0.353 0.287 0.64 0.64 0.64s0.64-0.287 0.64-0.64c0-3.873-3.167-7.040-7.040-7.040h-0.24c-3.873 0-7.040 3.167-7.040 7.040v6.32c0 0.353 0.287 0.64 0.64 0.64s0.64-0.287 0.64-0.64z"></path>
</symbol>
<symbol id="chevron-triple-down" viewBox="0 0 32 32">
<path d="M9.406 18.505l5.826 5.826 5.826-5.826 1.79 1.802-7.616 7.616-7.616-7.616 1.79-1.802zM9.406 10.888l5.826 5.826 5.826-5.826 1.79 1.803-7.616 7.616-7.616-7.616 1.79-1.803zM9.406 3.272l5.826 5.826 5.826-5.826 1.79 1.802-7.616 7.616-7.616-7.616 1.79-1.802z"></path>
</symbol>
<symbol id="id-card-svgrepo-com" viewBox="0 0 32 32">
<path d="M5 6c-1.645 0-3 1.355-3 3v14c0 1.645 1.355 3 3 3h22c1.645 0 3-1.355 3-3v-14c0-1.645-1.355-3-3-3zM5 8h22c0.566 0 1 0.434 1 1v14c0 0.566-0.434 1-1 1h-22c-0.566 0-1-0.434-1-1v-14c0-0.566 0.434-1 1-1zM11 10c-2.199 0-4 1.801-4 4 0 1.113 0.477 2.117 1.219 2.844-1.332 0.902-2.219 2.438-2.219 4.156h2c0-1.668 1.332-3 3-3s3 1.332 3 3h2c0-1.719-0.887-3.254-2.219-4.156 0.742-0.727 1.219-1.73 1.219-2.844 0-2.199-1.801-4-4-4zM18 11v2h8v-2zM11 12c1.117 0 2 0.883 2 2s-0.883 2-2 2c-1.117 0-2-0.883-2-2s0.883-2 2-2zM18 15v2h8v-2zM18 19v2h5v-2z"></path>
</symbol>
<symbol id="times-solid-svgrepo-com" viewBox="0 0 32 32">
<path d="M7.219 5.781l-1.438 1.438 8.781 8.781-8.781 8.781 1.438 1.438 8.781-8.781 8.781 8.781 1.438-1.438-8.781-8.781 8.781-8.781-1.438-1.438-8.781 8.781z"></path>
</symbol>
<symbol id="book-open-text-light" viewBox="0 0 32 32">
<path d="M29 6.25h-9c-1.673 0.001-3.143 0.867-3.989 2.175l-0.011 0.019c-0.857-1.327-2.327-2.192-4-2.194h-9c-0.414 0-0.75 0.336-0.75 0.75v0 18c0 0.414 0.336 0.75 0.75 0.75v0h9c1.795 0 3.25 1.455 3.25 3.25v0c0 0.414 0.336 0.75 0.75 0.75s0.75-0.336 0.75-0.75v0c0-1.795 1.455-3.25 3.25-3.25v0h9c0.414 0 0.75-0.336 0.75-0.75v0-18c0-0.414-0.336-0.75-0.75-0.75v0zM12 24.25h-8.25v-16.5h8.25c1.795 0 3.25 1.455 3.25 3.25v0 14.539c-0.845-0.798-1.988-1.289-3.246-1.289-0.001 0-0.003 0-0.004 0h0zM28.25 24.25h-8.25c-0.001 0-0.001 0-0.002 0-1.259 0-2.402 0.491-3.25 1.292l0.002-0.002v-14.54c0-1.795 1.455-3.25 3.25-3.25v0h8.25zM20 11.25h5c0.414 0 0.75 0.336 0.75 0.75s-0.336 0.75-0.75 0.75v0h-5c-0.414 0-0.75-0.336-0.75-0.75s0.336-0.75 0.75-0.75v0zM25.75 16c0 0.414-0.336 0.75-0.75 0.75v0h-5c-0.414 0-0.75-0.336-0.75-0.75s0.336-0.75 0.75-0.75v0h5c0.414 0 0.75 0.336 0.75 0.75v0zM25.75 20c0 0.414-0.336 0.75-0.75 0.75v0h-5c-0.414 0-0.75-0.336-0.75-0.75s0.336-0.75 0.75-0.75v0h5c0.414 0 0.75 0.336 0.75 0.75v0z"></path>
</symbol>
<symbol id="briefcase-2" viewBox="0 0 32 32">
<path d="M13 2c-1.657 0-3 1.343-3 3v0 1h-7c-1.657 0-3 1.343-3 3v0 16c0 1.657 1.343 3 3 3v0h26c1.657 0 3-1.343 3-3v0-16c0-1.657-1.343-3-3-3v0h-7v-1c0-1.657-1.343-3-3-3v0zM13 4h6c0.552 0 1 0.448 1 1v0 1h-8v-1c0-0.552 0.448-1 1-1v0zM16.772 17.828l13.228-3.526v10.698c0 0.552-0.448 1-1 1v0h-26c-0.552 0-1-0.448-1-1v0-10.7l13.228 3.528c0.232 0.064 0.497 0.101 0.772 0.101s0.54-0.037 0.793-0.106l-0.021 0.005zM3 8h26c0.552 0 1 0.448 1 1v0 3.232l-13.742 3.664c-0.077 0.021-0.166 0.034-0.258 0.034s-0.181-0.012-0.265-0.036l0.007 0.002-13.742-3.664v-3.232c0-0.552 0.448-1 1-1v0z"></path>
</symbol>
<symbol id="buildings" viewBox="0 0 32 32">
<path d="M29.526 0.15c0.286 0.179 0.474 0.493 0.474 0.85v30c0 0.552-0.448 1-1 1v0h-6c-0.552 0-1-0.448-1-1v0-3h-2v3c0 0.552-0.448 1-1 1v0h-18c-0.552 0-1-0.448-1-1v0-11c0-0.439 0.283-0.812 0.677-0.946l0.007-0.002 11.316-3.772v-6.28c0-0.389 0.222-0.726 0.546-0.891l0.006-0.003 16-8c0.13-0.067 0.284-0.106 0.448-0.106 0.195 0 0.377 0.056 0.531 0.152l-0.004-0.002zM12 17.388l-10 3.332v9.28h10zM14 30h4v-3c0-0.552 0.448-1 1-1v0h4c0.552 0 1 0.448 1 1v0 3h4v-27.382l-14 7z"></path>
<path d="M4 22h2v2h-2zM8 22h2v2h-2zM4 26h2v2h-2zM8 26h2v2h-2zM16 18h2v2h-2zM20 18h2v2h-2zM16 22h2v2h-2zM20 22h2v2h-2zM24 18h2v2h-2zM24 22h2v2h-2zM16 14h2v2h-2zM20 14h2v2h-2zM24 14h2v2h-2zM16 10h2v2h-2zM20 10h2v2h-2zM24 10h2v2h-2zM24 6h2v2h-2z"></path>
</symbol>
<symbol id="calendar-date" viewBox="0 0 32 32">
<path d="M12.89 23.376v-10.668h-1.266c-1.026 0.552-1.883 1.086-2.706 1.667l0.082-0.055v1.39c0.75-0.514 1.938-1.24 2.516-1.554h0.024v9.22zM15.266 20.766c0.094 1.28 1.188 2.812 3.406 2.812 2.516 0 4-2.132 4-5.742 0-3.868-1.562-5.336-3.906-5.336-1.852 0-3.594 1.344-3.594 3.618 0 2.32 1.648 3.54 3.352 3.54 1.492 0 2.46-0.752 2.766-1.58h0.054c-0.008 2.632-0.922 4.328-2.61 4.328-1.328 0-2.016-0.9-2.1-1.64zM21.172 16.132c0 1.392-1.118 2.36-2.368 2.36-1.202 0-2.288-0.766-2.288-2.4 0-1.646 1.164-2.42 2.336-2.42 1.266 0 2.32 0.796 2.32 2.46z"></path>
<path d="M7 0c0.552 0 1 0.448 1 1v0 1h16v-1c0-0.552 0.448-1 1-1s1 0.448 1 1v0 1h2c2.209 0 4 1.791 4 4v0 22c0 2.209-1.791 4-4 4v0h-24c-2.209 0-4-1.791-4-4v0-22c0-2.209 1.791-4 4-4v0h2v-1c0-0.552 0.448-1 1-1v0zM2 8v20c0 1.105 0.895 2 2 2v0h24c1.105 0 2-0.895 2-2v0-20z"></path>
</symbol>
<symbol id="chat" viewBox="0 0 32 32">
<path d="M5.356 23.788c0.36 0.362 0.583 0.861 0.583 1.412 0 0.067-0.003 0.133-0.010 0.199l0.001-0.008c-0.158 1.493-0.438 2.85-0.837 4.156l0.041-0.156c2.79-0.646 4.494-1.394 5.268-1.786 0.263-0.136 0.574-0.216 0.904-0.216 0.184 0 0.361 0.025 0.53 0.071l-0.014-0.003c1.241 0.346 2.666 0.544 4.137 0.544 0.014 0 0.029-0 0.043-0h-0.002c7.992 0 14-5.614 14-12s-6.008-12-14-12-14 5.616-14 12c0 2.936 1.234 5.66 3.356 7.788zM4.37 31.598c-0.198 0.050-0.681 0.14-1.167 0.222l-0.259 0.036c-0.4 0.064-0.704-0.352-0.546-0.724 0.129-0.284 0.294-0.706 0.445-1.134l0.043-0.14 0.006-0.020c0.496-1.44 0.9-3.096 1.048-4.638-2.454-2.46-3.94-5.68-3.94-9.2 0-7.732 7.164-14 16-14s16 6.268 16 14-7.164 14-16 14c-0.012 0-0.026 0-0.040 0-1.655 0-3.258-0.223-4.78-0.642l0.126 0.030c-1.040 0.526-3.278 1.484-6.936 2.21z"></path>
</symbol>
<symbol id="chevron-double-up" viewBox="0 0 32 32">
<path d="M15.292 5.292c0.181-0.181 0.431-0.294 0.708-0.294s0.527 0.112 0.708 0.294l12 12c0.181 0.181 0.293 0.431 0.293 0.708 0 0.553-0.448 1.001-1.001 1.001-0.276 0-0.527-0.112-0.708-0.293v0l-11.292-11.294-11.292 11.294c-0.181 0.181-0.431 0.293-0.708 0.293-0.553 0-1.001-0.448-1.001-1.001 0-0.276 0.112-0.527 0.293-0.708v0z"></path>
<path d="M15.292 13.292c0.181-0.181 0.431-0.294 0.708-0.294s0.527 0.112 0.708 0.294l12 12c0.181 0.181 0.293 0.431 0.293 0.708 0 0.553-0.448 1.001-1.001 1.001-0.276 0-0.527-0.112-0.708-0.293v0l-11.292-11.294-11.292 11.294c-0.181 0.181-0.431 0.293-0.708 0.293-0.553 0-1.001-0.448-1.001-1.001 0-0.276 0.112-0.527 0.293-0.708v0z"></path>
</symbol>
<symbol id="chevron-double-up1" viewBox="0 0 32 32">
<path d="M16.708 26.708c-0.181 0.181-0.431 0.294-0.708 0.294s-0.527-0.112-0.708-0.294l-12-12c-0.181-0.181-0.293-0.431-0.293-0.708 0-0.553 0.448-1.001 1.001-1.001 0.277 0 0.527 0.112 0.708 0.293v0l11.292 11.294 11.292-11.294c0.181-0.181 0.431-0.293 0.708-0.293 0.553 0 1.001 0.448 1.001 1.001 0 0.277-0.112 0.527-0.293 0.708v0z"></path>
<path d="M16.708 18.708c-0.181 0.181-0.431 0.294-0.708 0.294s-0.527-0.112-0.708-0.294l-12-12c-0.181-0.181-0.293-0.431-0.293-0.708 0-0.553 0.448-1.001 1.001-1.001 0.277 0 0.527 0.112 0.708 0.293v0l11.292 11.294 11.292-11.294c0.181-0.181 0.431-0.293 0.708-0.293 0.553 0 1.001 0.448 1.001 1.001 0 0.277-0.112 0.527-0.293 0.708v0z"></path>
</symbol>
<symbol id="clock-2" viewBox="0 0 32 32">
<path d="M16 7c0-0.552-0.448-1-1-1s-1 0.448-1 1v0 11c0 0.37 0.201 0.692 0.499 0.865l0.005 0.003 7 4c0.137 0.076 0.301 0.12 0.475 0.12 0.552 0 1-0.448 1-1 0-0.361-0.192-0.678-0.479-0.854l-6.5-3.715z"></path>
<path d="M16 32c8.837 0 16-7.163 16-16s-7.163-16-16-16v0c-8.837 0-16 7.163-16 16s7.163 16 16 16v0zM30 16c0 7.732-6.268 14-14 14s-14-6.268-14-14v0c0-7.732 6.268-14 14-14s14 6.268 14 14v0z"></path>
</symbol>
<symbol id="fingerprint" viewBox="0 0 32 32">
<path d="M16.12 13c0.552 0 1 0.448 1 1v0 1.552c-0 2.515-0.404 4.936-1.15 7.201l0.046-0.163-2.662 8.28c-0.14 0.394-0.51 0.67-0.944 0.67-0.552 0-1-0.448-1-1 0-0.1 0.015-0.196 0.042-0.287l-0.002 0.007 2.66-8.282c0.639-1.92 1.008-4.13 1.008-6.426v-1.552c0-0.552 0.448-1 1-1v0z"></path>
<path d="M12.12 14c0-2.209 1.791-4 4-4s4 1.791 4 4v0c0 0.552-0.448 1-1 1s-1-0.448-1-1v0c0-1.105-0.895-2-2-2s-2 0.895-2 2v0 0.664q0 1.226-0.132 2.442c-0.068 0.492-0.486 0.867-0.991 0.867-0.552 0-1-0.448-1-1 0-0.028 0.001-0.055 0.003-0.083l-0 0.004q0.12-1.11 0.12-2.23zM19.138 16c0.541 0.014 0.974 0.456 0.974 1 0 0.009-0 0.018-0 0.028l0-0.001c-0.065 2.408-0.489 4.695-1.222 6.84l0.048-0.162-2.532 7.6c-0.137 0.401-0.51 0.684-0.949 0.684-0.553 0-1.001-0.448-1.001-1.001 0-0.113 0.019-0.222 0.054-0.324l-0.002 0.007 2.534-7.6c0.624-1.81 1.012-3.898 1.069-6.068l0.001-0.028c0.014-0.541 0.456-0.974 1-0.974 0.009 0 0.018 0 0.028 0l-0.001-0zM12.426 20.23c0.412 0.13 0.705 0.509 0.705 0.956 0 0.106-0.016 0.208-0.047 0.304l0.002-0.007-2.606 8.396c-0.124 0.421-0.507 0.722-0.961 0.722-0.552 0-1-0.448-1-1 0-0.112 0.019-0.22 0.053-0.321l-0.002 0.007 2.606-8.398c0.131-0.41 0.509-0.703 0.955-0.703 0.105 0 0.207 0.016 0.302 0.047l-0.007-0.002z"></path>
<path d="M9.518 11.666c0.993-2.738 3.571-4.658 6.598-4.658 3.864 0 6.996 3.129 7.002 6.991v0.001c0 0.552-0.448 1-1 1s-1-0.448-1-1v0c-0-2.761-2.239-4.999-5-4.999-2.164 0-4.007 1.375-4.703 3.298l-0.011 0.035c-0.142 0.392-0.51 0.666-0.943 0.666-0.553 0-1-0.448-1-1 0-0.12 0.021-0.235 0.060-0.341l-0.002 0.007zM10.118 15.006c0.509 0.051 0.903 0.477 0.903 0.995 0 0.034-0.002 0.068-0.005 0.101l0-0.004c-0.151 1.51-0.433 2.889-0.84 4.214l0.040-0.152-2.444 8.144c-0.127 0.416-0.508 0.713-0.958 0.713-0.552 0-1-0.448-1-1 0-0.102 0.015-0.201 0.044-0.294l-0.002 0.007 2.444-8.144c0.333-1.064 0.589-2.314 0.719-3.602l0.007-0.082c0.051-0.509 0.477-0.903 0.995-0.903 0.034 0 0.068 0.002 0.101 0.005l-0.004-0zM22.118 16.3c0.552 0 1 0.448 1 1v0c0 2.56-0.426 5.104-1.264 7.524l-2.18 6.29c-0.151 0.373-0.51 0.631-0.93 0.631-0.552 0-1-0.448-1-1 0-0.102 0.015-0.2 0.043-0.293l-0.002 0.007 2.178-6.29c0.764-2.21 1.156-4.532 1.156-6.87 0-0.552 0.448-1 1-1v0z"></path>
<path d="M7.804 8.444c1.819-2.697 4.863-4.446 8.316-4.446 0.74 0 1.46 0.080 2.154 0.233l-0.066-0.012c0.456 0.099 0.793 0.5 0.793 0.979 0 0.553-0.448 1.001-1.001 1.001-0.074 0-0.145-0.008-0.215-0.023l0.007 0.001c-0.503-0.112-1.081-0.177-1.673-0.177-2.762 0-5.197 1.4-6.635 3.529l-0.018 0.028c-0.183 0.261-0.482 0.43-0.821 0.43-0.552 0-1-0.448-1-1 0-0.201 0.059-0.389 0.162-0.545l-0.002 0.004zM21.244 6.534c0.184-0.213 0.455-0.347 0.757-0.347 0.25 0 0.479 0.092 0.654 0.244l-0.001-0.001c2.127 1.841 3.464 4.544 3.464 7.559 0 0.004 0 0.008 0 0.011v-0.001 3c0 0.552-0.448 1-1 1s-1-0.448-1-1v0-3c0-0.003 0-0.006 0-0.010 0-2.412-1.070-4.574-2.762-6.038l-0.010-0.009c-0.212-0.184-0.345-0.455-0.345-0.756 0-0.251 0.092-0.48 0.245-0.655l-0.001 0.001zM7.36 11.684c0.486 0.073 0.855 0.488 0.855 0.989 0 0.052-0.004 0.103-0.011 0.152l0.001-0.006q-0.088 0.578-0.088 1.18c0 1.42-0.2 2.834-0.596 4.2l-2.28 7.846c-0.117 0.432-0.505 0.744-0.967 0.744-0.552 0-1-0.448-1-1 0-0.108 0.017-0.212 0.049-0.309l-0.002 0.007 2.28-7.846c0.327-1.086 0.516-2.334 0.516-3.626 0-0.006 0-0.011 0-0.017v0.001q0-0.75 0.108-1.472c0.073-0.486 0.488-0.855 0.989-0.855 0.052 0 0.103 0.004 0.152 0.011l-0.006-0.001zM25.124 19.004c0.515 0.045 0.916 0.474 0.916 0.996 0 0.029-0.001 0.059-0.004 0.087l0-0.004c-0.168 2-0.596 3.972-1.28 5.868l-1.488 4.136c-0.147 0.381-0.51 0.646-0.935 0.646-0.552 0-1-0.448-1-1 0-0.115 0.020-0.226 0.056-0.329l-0.002 0.007 1.49-4.14c0.584-1.568 0.999-3.387 1.163-5.277l0.006-0.079c0.045-0.515 0.474-0.916 0.996-0.916 0.029 0 0.059 0.001 0.087 0.004l-0.004-0z"></path>
<path d="M9.62 2.74c1.865-1.095 4.107-1.742 6.5-1.742 7.18 0 13 5.82 13 13 0 0.001 0 0.001 0 0.002v-0c0 0.552-0.448 1-1 1s-1-0.448-1-1v0c0-0.001 0-0.002 0-0.004 0-6.075-4.925-11-11-11-2.025 0-3.922 0.547-5.552 1.502l0.052-0.028c-0.134 0.072-0.294 0.114-0.464 0.114-0.552 0-1-0.448-1-1 0-0.353 0.183-0.664 0.46-0.842l0.004-0.002zM7.84 5.254c0.205 0.184 0.334 0.45 0.334 0.746 0 0.256-0.096 0.49-0.255 0.667l0.001-0.001c-1.737 1.931-2.8 4.5-2.8 7.317 0 0.006 0 0.012 0 0.018v-0.001c0 0.552-0.448 1-1 1s-1-0.448-1-1v0c0-3.328 1.252-6.368 3.31-8.666 0.184-0.205 0.45-0.334 0.746-0.334 0.256 0 0.49 0.096 0.667 0.255l-0.001-0.001zM3.83 16.040c0.424 0.122 0.729 0.507 0.729 0.963 0 0.096-0.013 0.189-0.039 0.276l0.002-0.007-1.558 5.534c-0.108 0.444-0.503 0.769-0.973 0.769-0.552 0-1-0.448-1-1 0-0.111 0.018-0.217 0.051-0.316l-0.002 0.007 1.556-5.534c0.122-0.424 0.507-0.73 0.963-0.73 0.097 0 0.19 0.014 0.278 0.039l-0.007-0.002zM28.13 17.002c0.544 0.011 0.98 0.454 0.98 1 0 0.007-0 0.014-0 0.021l0-0.001c-0.060 2.998-0.322 6.050-1.454 9.066l-0.14 0.374c-0.153 0.369-0.51 0.624-0.927 0.624-0.552 0-1-0.448-1-1 0-0.117 0.020-0.229 0.057-0.333l-0.002 0.007 0.14-0.374c1.012-2.7 1.268-5.48 1.326-8.404 0.011-0.544 0.454-0.98 1-0.98 0.007 0 0.014 0 0.021 0l-0.001-0z"></path>
</symbol>
<symbol id="geo-alt" viewBox="0 0 32 32">
<path d="M24.332 17.88c-1.048 2.124-2.468 4.24-3.92 6.14-1.464 1.893-2.909 3.568-4.435 5.164l0.023-0.024c-1.503-1.572-2.948-3.247-4.303-4.994l-0.109-0.145c-1.452-1.9-2.872-4.016-3.92-6.14-1.060-2.146-1.668-4.156-1.668-5.88 0-5.523 4.477-10 10-10s10 4.477 10 10v0c0 1.724-0.61 3.734-1.668 5.88zM16 32s12-11.372 12-20c0-6.627-5.373-12-12-12s-12 5.373-12 12v0c0 8.628 12 20 12 20z"></path>
<path d="M16 16c-2.209 0-4-1.791-4-4s1.791-4 4-4v0c2.209 0 4 1.791 4 4s-1.791 4-4 4v0zM16 18c3.314 0 6-2.686 6-6s-2.686-6-6-6v0c-3.314 0-6 2.686-6 6s2.686 6 6 6v0z"></path>
</symbol>
<symbol id="list-bullet-solid" viewBox="0 0 32 32">
<path d="M3.5 9c0-0.828 0.672-1.5 1.5-1.5s1.5 0.672 1.5 1.5v0c0 0.828-0.672 1.5-1.5 1.5s-1.5-0.672-1.5-1.5v0zM10 9c0-0.552 0.448-1 1-1v0h16c0.552 0 1 0.448 1 1s-0.448 1-1 1v0h-16c-0.552 0-1-0.448-1-1v0zM3.5 16c0-0.828 0.672-1.5 1.5-1.5s1.5 0.672 1.5 1.5v0c0 0.828-0.672 1.5-1.5 1.5s-1.5-0.672-1.5-1.5v0zM10 16c0-0.552 0.448-1 1-1v0h16c0.552 0 1 0.448 1 1s-0.448 1-1 1v0h-16c-0.552 0-1-0.448-1-1v0zM3.5 23c0-0.828 0.672-1.5 1.5-1.5s1.5 0.672 1.5 1.5v0c0 0.828-0.672 1.5-1.5 1.5s-1.5-0.672-1.5-1.5v0zM10 23c0-0.552 0.448-1 1-1v0h16c0.552 0 1 0.448 1 1s-0.448 1-1 1v0h-16c-0.552 0-1-0.448-1-1v0z"></path>
</symbol>
<symbol id="lock-key-light" viewBox="0 0 32 32">
<path d="M26 10.25h-4.25v-3.25c0-3.176-2.574-5.75-5.75-5.75s-5.75 2.574-5.75 5.75v0 3.25h-4.25c-0.966 0-1.75 0.784-1.75 1.75v0 14c0 0.966 0.784 1.75 1.75 1.75v0h20c0.966 0 1.75-0.784 1.75-1.75v0-14c0-0.966-0.784-1.75-1.75-1.75v0zM11.75 7c0-2.347 1.903-4.25 4.25-4.25s4.25 1.903 4.25 4.25v0 3.25h-8.5zM26.25 26c0 0.138-0.112 0.25-0.25 0.25v0h-20c-0.138 0-0.25-0.112-0.25-0.25v0-14c0-0.138 0.112-0.25 0.25-0.25v0h20c0.138 0 0.25 0.112 0.25 0.25v0zM16 14.25c-1.793 0.002-3.246 1.457-3.246 3.25 0 1.527 1.053 2.808 2.473 3.157l0.022 0.005v2.339c0 0.414 0.336 0.75 0.75 0.75s0.75-0.336 0.75-0.75v0-2.339c1.442-0.353 2.496-1.634 2.496-3.161 0-1.793-1.453-3.248-3.245-3.25h-0zM16 19.25c-0.966 0-1.75-0.784-1.75-1.75s0.784-1.75 1.75-1.75c0.966 0 1.75 0.784 1.75 1.75v0c0 0.966-0.784 1.75-1.75 1.75v0z"></path>
</symbol>
<symbol id="mouse" viewBox="0 0 32 32">
<path d="M16 26c-0.552 0-1-0.448-1-1v0-4c0-0.552 0.448-1 1-1s1 0.448 1 1v0 4c0 0.552-0.448 1-1 1v0zM8 10c0-4.418 3.582-8 8-8s8 3.582 8 8v0 12c0 4.418-3.582 8-8 8s-8-3.582-8-8v0zM16 32c5.523 0 10-4.477 10-10v0-12c0-5.523-4.477-10-10-10s-10 4.477-10 10v0 12c0 5.523 4.477 10 10 10v0z"></path>
</symbol>
<symbol id="people" viewBox="0 0 32 32">
<path d="M30 28s2 0 2-2-2-8-10-8-10 6-10 8 2 2 2 2zM14.044 26l-0.044-0.008c0.002-0.528 0.334-2.060 1.52-3.44 1.104-1.294 3.044-2.552 6.48-2.552 3.434 0 5.374 1.26 6.48 2.552 1.186 1.38 1.516 2.914 1.52 3.44l-0.016 0.004-0.028 0.004zM22 14c2.209 0 4-1.791 4-4s-1.791-4-4-4v0c-2.209 0-4 1.791-4 4s1.791 4 4 4v0zM28 10c0 3.314-2.686 6-6 6s-6-2.686-6-6v0c0-3.314 2.686-6 6-6s6 2.686 6 6v0zM13.872 18.56c-0.714-0.232-1.549-0.407-2.411-0.49l-0.049-0.004c-0.407-0.042-0.88-0.066-1.359-0.066-0.019 0-0.037 0-0.056 0h0.003c-8 0-10 6-10 8q0 2 2 2h8.432c-0.273-0.562-0.433-1.223-0.433-1.921 0-0.028 0-0.056 0.001-0.083l-0 0.004c0-2.020 0.754-4.084 2.18-5.808 0.486-0.588 1.052-1.138 1.692-1.632zM9.84 20c-1.136 1.688-1.821 3.762-1.84 5.995l-0 0.005h-6c0-0.52 0.328-2.060 1.52-3.448 1.090-1.272 2.984-2.512 6.32-2.55zM3 11c0-3.314 2.686-6 6-6s6 2.686 6 6v0c0 3.314-2.686 6-6 6s-6-2.686-6-6v0zM9 7c-2.209 0-4 1.791-4 4s1.791 4 4 4v0c2.209 0 4-1.791 4-4s-1.791-4-4-4v0z"></path>
</symbol>
<symbol id="person" viewBox="0 0 32 32">
<path d="M16 16c3.314 0 6-2.686 6-6s-2.686-6-6-6v0c-3.314 0-6 2.686-6 6s2.686 6 6 6v0zM20 10c0 2.209-1.791 4-4 4s-4-1.791-4-4v0c0-2.209 1.791-4 4-4s4 1.791 4 4v0zM28 26c0 2-2 2-2 2h-20s-2 0-2-2 2-8 12-8 12 6 12 8zM26 25.992c-0.002-0.492-0.308-1.972-1.664-3.328-1.304-1.304-3.758-2.664-8.336-2.664s-7.032 1.36-8.336 2.664c-1.356 1.356-1.66 2.836-1.664 3.328z"></path>
</symbol>
<symbol id="phone-3" viewBox="0 0 32 32">
<path d="M22 2c1.105 0 2 0.895 2 2v0 24c0 1.105-0.895 2-2 2v0h-12c-1.105 0-2-0.895-2-2v0-24c0-1.105 0.895-2 2-2v0zM10 0c-2.209 0-4 1.791-4 4v0 24c0 2.209 1.791 4 4 4v0h12c2.209 0 4-1.791 4-4v0-24c0-2.209-1.791-4-4-4v0z"></path>
<path d="M16 28c1.105 0 2-0.895 2-2s-0.895-2-2-2v0c-1.105 0-2 0.895-2 2s0.895 2 2 2v0z"></path>
</symbol>
<symbol id="scales" viewBox="0 0 32 32">
<path d="M29.929 16.625l-4-10c-0.151-0.372-0.51-0.629-0.929-0.629-0.077 0-0.151 0.009-0.223 0.025l0.007-0.001-7.784 1.73v-2.75c0-0.552-0.448-1-1-1s-1 0.448-1 1v0 3.197l-8.217 1.826c-0.325 0.074-0.586 0.298-0.709 0.595l-0.002 0.007v0.008l-4 9.992c-0.045 0.109-0.071 0.236-0.071 0.368 0 0.002 0 0.005 0 0.007v-0c0 2.914 3.067 4 5 4s5-1.086 5-4c0-0.002 0-0.004 0-0.007 0-0.133-0.026-0.259-0.074-0.375l0.002 0.007-3.564-8.904 6.635-1.471v15.75h-2c-0.552 0-1 0.448-1 1s0.448 1 1 1v0h6c0.552 0 1-0.448 1-1s-0.448-1-1-1v0h-2v-16.198l6.375-1.415-3.304 8.238c-0.045 0.109-0.071 0.236-0.071 0.368 0 0.002 0 0.005 0 0.007v-0c0 2.914 3.067 4 5 4s5-1.086 5-4c0-0.002 0-0.004 0-0.007 0-0.133-0.026-0.259-0.074-0.375l0.002 0.007zM7 23c-0.941 0-2.845-0.451-2.991-1.83l2.991-7.477 2.991 7.477c-0.146 1.379-2.050 1.83-2.991 1.83zM25 19c-0.941 0-2.845-0.451-2.991-1.83l2.991-7.477 2.991 7.477c-0.146 1.379-2.050 1.83-2.991 1.83z"></path>
</symbol>
<symbol id="search" viewBox="0 0 32 32">
<path d="M23.484 20.688c1.571-2.123 2.514-4.794 2.514-7.684 0-7.18-5.82-13-13-13s-13 5.82-13 13c0 7.18 5.82 13 13 13 2.894 0 5.567-0.946 7.727-2.545l-0.035 0.025h-0.002q0.088 0.12 0.196 0.23l7.7 7.7c0.362 0.362 0.862 0.586 1.415 0.586 1.105 0 2-0.896 2-2 0-0.552-0.224-1.052-0.585-1.414l-7.7-7.7c-0.070-0.071-0.145-0.137-0.225-0.196l-0.005-0.004zM24 13c0 6.075-4.925 11-11 11s-11-4.925-11-11v0c0-6.075 4.925-11 11-11s11 4.925 11 11v0z"></path>
</symbol>
<symbol id="shield-shaded" viewBox="0 0 32 32">
<path d="M16 29.866c0.081-0.016 0.148-0.033 0.214-0.054l-0.014 0.004q0.228-0.068 0.588-0.236c0.48-0.226 1.094-0.58 1.786-1.066 1.758-1.274 3.266-2.748 4.536-4.414l0.038-0.052c3.054-3.994 5.614-10.062 4.506-18.376-0.053-0.368-0.309-0.666-0.649-0.778l-0.007-0.002c-1.302-0.426-3.5-1.12-5.674-1.71-2.22-0.602-4.262-1.048-5.324-1.048zM10.144 1.12c2.17-0.59 4.476-1.12 5.856-1.12s3.686 0.53 5.856 1.12c2.22 0.6 4.458 1.31 5.774 1.74 1.112 0.375 1.928 1.337 2.086 2.508l0.002 0.016c1.192 8.954-1.574 15.59-4.93 19.98-1.44 1.887-3.1 3.506-4.966 4.859l-0.068 0.047c-0.605 0.442-1.292 0.858-2.014 1.213l-0.082 0.037c-0.56 0.264-1.162 0.48-1.658 0.48s-1.096-0.216-1.658-0.48c-0.804-0.392-1.491-0.808-2.136-1.278l0.040 0.028c-1.934-1.4-3.594-3.019-4.992-4.849l-0.042-0.057c-3.356-4.39-6.122-11.026-4.93-19.98 0.16-1.187 0.976-2.149 2.066-2.518l0.022-0.006c1.016-0.381 2.942-0.976 4.886-1.526l0.888-0.214z"></path>
</symbol>
<symbol id="shield" viewBox="0 0 32 32">
<path d="M10.676 3.18c-2.771 0.748-4.663 1.333-6.535 1.963l0.861-0.251c-0.347 0.114-0.603 0.412-0.655 0.775l-0.001 0.005c-1.108 8.314 1.452 14.38 4.506 18.376 1.308 1.718 2.816 3.192 4.512 4.423l0.062 0.043c0.692 0.488 1.304 0.84 1.786 1.066q0.36 0.17 0.586 0.236c0.052 0.017 0.12 0.034 0.189 0.048l0.013 0.002c0.081-0.016 0.148-0.033 0.214-0.054l-0.014 0.004q0.228-0.068 0.588-0.236c0.48-0.226 1.094-0.58 1.786-1.066 1.758-1.274 3.266-2.748 4.536-4.414l0.038-0.052c3.054-3.994 5.614-10.062 4.506-18.376-0.053-0.368-0.309-0.666-0.649-0.778l-0.007-0.002c-1.302-0.426-3.5-1.12-5.674-1.71-2.22-0.602-4.262-1.048-5.324-1.048-1.060 0-3.104 0.446-5.324 1.048zM10.144 1.12c2.17-0.59 4.476-1.12 5.856-1.12s3.686 0.53 5.856 1.12c2.22 0.6 4.458 1.31 5.774 1.74 1.112 0.375 1.928 1.337 2.086 2.508l0.002 0.016c1.192 8.954-1.574 15.59-4.93 19.98-1.44 1.887-3.1 3.506-4.966 4.859l-0.068 0.047c-0.605 0.442-1.292 0.858-2.014 1.213l-0.082 0.037c-0.56 0.264-1.162 0.48-1.658 0.48s-1.096-0.216-1.658-0.48c-0.804-0.392-1.491-0.808-2.136-1.278l0.040 0.028c-1.934-1.4-3.594-3.019-4.992-4.849l-0.042-0.057c-3.356-4.39-6.122-11.026-4.93-19.98 0.16-1.187 0.976-2.149 2.066-2.518l0.022-0.006c1.016-0.381 2.942-0.976 4.886-1.526l0.888-0.214z"></path>
</symbol>
<symbol id="telegram-logo" viewBox="0 0 32 32">
<path d="M28.61 3.274c-0.196-0.17-0.454-0.274-0.735-0.274-0.147 0-0.288 0.028-0.417 0.080l0.008-0.003-25.332 9.914c-0.669 0.265-1.133 0.907-1.133 1.657 0 0.861 0.613 1.579 1.426 1.743l0.011 0.002 6.564 1.289v7.319c0 0.002 0 0.004 0 0.006 0 0.832 0.511 1.546 1.237 1.843l0.013 0.005c0.222 0.093 0.481 0.148 0.752 0.148 0.565 0 1.074-0.235 1.436-0.613l0.001-0.001 3.165-3.282 5.021 4.395c0.348 0.31 0.809 0.499 1.314 0.5h0c0.223-0 0.438-0.036 0.639-0.103l-0.014 0.004c0.669-0.217 1.174-0.762 1.331-1.44l0.003-0.013 5.074-22.073c0.018-0.075 0.028-0.161 0.028-0.25 0-0.339-0.15-0.644-0.388-0.85l-0.001-0.001zM20.968 7.774l-11.199 8.020-6.2-1.216zM11 25v-5.935l3.099 2.718zM21.941 26l-10.335-9.063 14.875-10.661z"></path>
</symbol>
<symbol id="telephone" viewBox="0 0 32 32">
<path d="M7.308 2.656c-0.25-0.32-0.637-0.524-1.071-0.524-0.375 0-0.714 0.152-0.959 0.398l-2.068 2.070c-0.966 0.968-1.322 2.338-0.9 3.54 1.855 5.172 4.701 9.589 8.335 13.215l0.001 0.001c3.627 3.635 8.044 6.481 12.971 8.259l0.245 0.077c1.202 0.422 2.572 0.066 3.54-0.9l2.068-2.068c0.246-0.245 0.398-0.585 0.398-0.959 0-0.434-0.204-0.82-0.521-1.068l-0.003-0.002-4.614-3.588c-0.227-0.177-0.517-0.284-0.832-0.284-0.116 0-0.23 0.015-0.337 0.042l0.009-0.002-4.38 1.094c-0.253 0.066-0.544 0.103-0.843 0.103-0.965 0-1.838-0.39-2.471-1.021l-4.912-4.914c-0.632-0.633-1.023-1.507-1.023-2.472 0-0.299 0.037-0.589 0.108-0.866l-0.005 0.024 1.096-4.38c0.025-0.098 0.040-0.212 0.040-0.328 0-0.315-0.107-0.605-0.286-0.835l0.002 0.003zM3.768 1.022c0.632-0.632 1.504-1.023 2.468-1.023 1.117 0 2.111 0.525 2.75 1.341l0.006 0.008 3.588 4.612c0.658 0.846 0.89 1.948 0.63 2.988l-1.094 4.38c-0.025 0.098-0.040 0.211-0.040 0.327 0 0.374 0.151 0.713 0.396 0.959l4.914 4.914c0.246 0.245 0.585 0.396 0.96 0.396 0.117 0 0.23-0.015 0.338-0.042l-0.009 0.002 4.378-1.094c0.253-0.066 0.544-0.103 0.844-0.103 0.811 0 1.558 0.276 2.152 0.739l-0.008-0.006 4.612 3.588c1.658 1.29 1.81 3.74 0.326 5.222l-2.068 2.068c-1.48 1.48-3.692 2.13-5.754 1.404-5.488-1.962-10.175-4.981-14.019-8.839l-0.001-0.001c-3.859-3.845-6.878-8.53-8.759-13.759l-0.081-0.259c-0.724-2.060-0.074-4.274 1.406-5.754z"></path>
</symbol>
<symbol id="trend-up" viewBox="0 0 32 32">
<path d="M30 7v8c0 0.552-0.448 1-1 1s-1-0.448-1-1v0-5.586l-10.293 10.294c-0.181 0.181-0.431 0.293-0.707 0.293s-0.526-0.112-0.707-0.293l-4.293-4.294-8.293 8.294c-0.181 0.181-0.431 0.293-0.708 0.293-0.553 0-1.001-0.448-1.001-1.001 0-0.276 0.112-0.526 0.293-0.707v0l9-9c0.181-0.181 0.431-0.293 0.707-0.293s0.527 0.112 0.707 0.293l4.293 4.294 9.586-9.586h-5.586c-0.552 0-1-0.448-1-1s0.448-1 1-1v0h8c0.552 0 1 0.448 1 1v0z"></path>
</symbol>
<symbol id="user-2" viewBox="0 0 32 32">
<path d="M28.865 26.5c-1.904-3.291-4.838-5.651-8.261-6.77 2.651-1.598 4.396-4.462 4.396-7.733 0-4.971-4.029-9-9-9s-9 4.029-9 9c0 3.271 1.745 6.135 4.356 7.711l0.040 0.023c-3.424 1.117-6.357 3.477-8.261 6.77-0.093 0.149-0.148 0.329-0.148 0.523 0 0.552 0.448 1 1 1 0.377 0 0.706-0.209 0.876-0.518l0.003-0.005c2.355-4.070 6.517-6.5 11.134-6.5s8.779 2.43 11.134 6.5c0.173 0.314 0.501 0.523 0.879 0.523 0.552 0 1-0.448 1-1 0-0.193-0.055-0.374-0.15-0.527l0.002 0.004zM9 12c0-3.866 3.134-7 7-7s7 3.134 7 7c0 3.866-3.134 7-7 7v0c-3.864-0.004-6.996-3.136-7-7v-0z"></path>
</symbol>
<symbol id="users-2" viewBox="0 0 32 32">
<path d="M14.656 19.74c2.028-1.364 3.344-3.65 3.344-6.243 0-4.142-3.358-7.5-7.5-7.5s-7.5 3.358-7.5 7.5c0 2.593 1.316 4.879 3.317 6.226l0.027 0.017c-2.47 0.927-4.494 2.568-5.875 4.668l-0.028 0.045c-0.107 0.157-0.17 0.35-0.17 0.558 0 0.552 0.448 1 1 1 0.354 0 0.665-0.184 0.843-0.462l0.002-0.004c1.811-2.755 4.888-4.549 8.384-4.549s6.573 1.794 8.36 4.511l0.023 0.038c0.182 0.268 0.486 0.442 0.83 0.442 0.552 0 1-0.448 1-1 0-0.198-0.058-0.383-0.157-0.538l0.002 0.004c-1.409-2.146-3.433-3.787-5.82-4.686l-0.082-0.027zM5 13.5c0-3.038 2.462-5.5 5.5-5.5s5.5 2.462 5.5 5.5c0 3.038-2.462 5.5-5.5 5.5v0c-3.036-0.004-5.496-2.464-5.5-5.5v-0zM31.267 25.837c-0.154 0.102-0.343 0.162-0.546 0.162-0.349 0-0.656-0.179-0.835-0.45l-0.002-0.004c-1.806-2.753-4.879-4.546-8.37-4.546-0.005 0-0.009 0-0.014 0h0.001c-0.552 0-1-0.448-1-1s0.448-1 1-1v0c3.035-0.003 5.495-2.464 5.495-5.5 0-3.038-2.462-5.5-5.5-5.5-0.734 0-1.434 0.144-2.074 0.405l0.037-0.013c-0.117 0.052-0.253 0.082-0.397 0.082-0.552 0-1-0.448-1-1 0-0.428 0.269-0.793 0.647-0.936l0.007-0.002c0.823-0.338 1.778-0.534 2.778-0.534 4.142 0 7.5 3.358 7.5 7.5 0 2.59-1.313 4.874-3.31 6.222l-0.027 0.017c2.47 0.927 4.494 2.568 5.875 4.668l0.028 0.045c0.102 0.154 0.162 0.343 0.162 0.546 0 0.349-0.179 0.656-0.45 0.835l-0.004 0.002z"></path>
</symbol>
</defs>
</svg>
